<svg width="70" height="70" viewBox="0 0 70 70" fill="none" xmlns="http://www.w3.org/2000/svg">
<rect y="3.05176e-05" width="70" height="69.9999" rx="5" fill="#FC0012"/>
<path d="M23.9141 25.4958C24.0148 25.7106 24.1748 25.8924 24.3755 26.0197C24.5761 26.1471 24.8091 26.2147 25.0469 26.2147H31.125V28.3547C31.125 28.6851 31.2567 29.0021 31.4912 29.2357C31.7256 29.4694 32.0435 29.6007 32.375 29.6007C32.7066 29.6007 33.0245 29.4694 33.2589 29.2357C33.4933 29.0021 33.625 28.6851 33.625 28.3547V26.2147H34.2008C34.5323 26.2147 34.8503 26.0834 35.0847 25.8497C35.3191 25.6161 35.4508 25.2991 35.4508 24.9687C35.4508 24.6382 35.3191 24.3213 35.0847 24.0876C34.8503 23.854 34.5323 23.7227 34.2008 23.7227H33.625V16.2457C33.625 15.99 33.546 15.7404 33.3987 15.531C33.2515 15.3215 33.0431 15.1623 32.802 15.075C32.5609 14.9876 32.2986 14.9763 32.0508 15.0427C31.803 15.109 31.5817 15.2498 31.4169 15.4458L24.0883 24.1688C23.9357 24.3505 23.8382 24.5719 23.8073 24.807C23.7764 25.0421 23.8135 25.281 23.9141 25.4958ZM31.125 19.6743V23.7229H27.7239L31.125 19.6743ZM37.4508 46.1409L43.9994 35.9498H39.1777C38.8462 35.9498 38.5282 35.8186 38.2938 35.5849C38.0594 35.3512 37.9277 35.0343 37.9277 34.7039C37.9277 34.3734 38.0594 34.0565 38.2938 33.8228C38.5282 33.5892 38.8462 33.4579 39.1777 33.4579H46.2845C46.5088 33.4579 46.7289 33.5181 46.9219 33.6321C47.1148 33.7461 47.2735 33.9098 47.3811 34.1059C47.4888 34.3021 47.5415 34.5235 47.5337 34.7469C47.526 34.9704 47.458 35.1876 47.337 35.3759L39.5558 47.4852C39.4675 47.6234 39.3526 47.7429 39.2179 47.8368C39.0832 47.9307 38.9312 47.9971 38.7706 48.0324C38.6101 48.0676 38.4441 48.071 38.2823 48.0422C38.1204 48.0135 37.9659 47.9532 37.8275 47.8648C37.689 47.7764 37.5694 47.6617 37.4756 47.5271C37.3817 47.3926 37.3153 47.241 37.2803 47.0809C37.2453 46.9208 37.2424 46.7553 37.2716 46.5941C37.3008 46.4328 37.3617 46.2789 37.4507 46.1411L37.4508 46.1409ZM43.9946 23.2456C44.229 23.4792 44.3606 23.7962 44.3606 24.1266C44.3606 24.457 44.229 24.774 43.9946 25.0076L25.5682 43.3748C25.3333 43.6061 25.0161 43.7353 24.6859 43.7343C24.3557 43.7333 24.0393 43.6022 23.8058 43.3694C23.5723 43.1367 23.4407 42.8213 23.4397 42.4922C23.4387 42.163 23.5684 41.8469 23.8004 41.6127L42.2266 23.2456C42.3427 23.1299 42.4805 23.038 42.6321 22.9754C42.7838 22.9128 42.9464 22.8805 43.1106 22.8805C43.2747 22.8805 43.4373 22.9128 43.589 22.9754C43.7407 23.038 43.8785 23.1299 43.9946 23.2456ZM22.0704 20.6351C22.3868 19.4802 22.1862 18.6104 21.4744 18.0485C20.6775 17.4201 19.3507 17.3087 18.4537 17.7958C17.7723 18.1657 17.4704 18.8048 17.5563 19.6959C17.572 19.8588 17.5554 20.0231 17.5073 20.1796C17.4593 20.3361 17.3808 20.4816 17.2764 20.6078C17.1719 20.734 17.0435 20.8385 16.8986 20.9153C16.7536 20.9921 16.5949 21.0397 16.4315 21.0553C16.2681 21.071 16.1032 21.0544 15.9462 21.0065C15.7892 20.9586 15.6432 20.8804 15.5166 20.7763C15.39 20.6721 15.2851 20.5442 15.2081 20.3997C15.1311 20.2552 15.0833 20.097 15.0677 19.9341C14.8848 18.039 15.6831 16.4621 17.2579 15.6073C19.0255 14.6479 21.451 14.8527 23.0254 16.0943C24.5307 17.2815 25.0615 19.1758 24.4818 21.2916C24.0905 22.7196 22.7513 23.7613 21.2005 24.9676C20.3633 25.6188 19.4604 26.3211 18.7033 27.1091H23.8813C24.2128 27.1091 24.5308 27.2404 24.7652 27.474C24.9996 27.7077 25.1313 28.0246 25.1313 28.3551C25.1313 28.6855 24.9996 29.0025 24.7652 29.2361C24.5308 29.4698 24.2128 29.6011 23.8813 29.6011H16.2762C16.0644 29.6011 15.856 29.5475 15.6706 29.4453C15.4853 29.3431 15.329 29.1955 15.2166 29.0166C15.1041 28.8376 15.0391 28.6331 15.0277 28.4223C15.0162 28.2114 15.0588 28.0011 15.1512 27.8111C16.1688 25.7207 18.0248 24.2771 19.6622 23.0034C20.7615 22.1483 21.8977 21.2644 22.0704 20.6351ZM55 35.0643C55 39.0072 53.8271 42.8615 51.6294 46.1399C49.4318 49.4183 46.3082 51.9735 42.6537 53.4824C38.9992 54.9913 34.9778 55.3861 31.0982 54.6169C27.2186 53.8477 23.6549 51.949 20.8579 49.1609C18.9949 47.314 17.5179 45.1171 16.5124 42.6974C15.5069 40.2778 14.9929 37.6833 15.0001 35.0643C15.0001 34.7338 15.1318 34.4169 15.3662 34.1832C15.6006 33.9496 15.9186 33.8183 16.2501 33.8183C16.5816 33.8183 16.8995 33.9496 17.134 34.1832C17.3684 34.4169 17.5001 34.7338 17.5001 35.0643C17.5001 44.6827 25.3505 52.5079 35 52.5079C44.6495 52.5079 52.5 44.6827 52.5 35.0643C52.5 26.3319 45.9599 18.8964 37.2871 17.7686C37.1226 17.7495 36.9635 17.698 36.8192 17.6171C36.6748 17.5362 36.548 17.4276 36.4462 17.2974C36.3443 17.1673 36.2694 17.0182 36.2258 16.859C36.1822 16.6997 36.1708 16.5335 36.1922 16.3698C36.2136 16.2061 36.2675 16.0483 36.3506 15.9055C36.4337 15.7628 36.5445 15.6379 36.6765 15.5382C36.8084 15.4384 36.9589 15.3658 37.1193 15.3246C37.2796 15.2833 37.4466 15.2742 37.6105 15.2978C42.4211 15.9298 46.8373 18.2831 50.0365 21.9196C53.2356 25.5561 54.9997 30.2277 55 35.0643Z" fill="white"/>
</svg>
