<svg width="70" height="70" viewBox="0 0 70 70" fill="none" xmlns="http://www.w3.org/2000/svg">
<rect y="3.05176e-05" width="70" height="70" rx="5" fill="#FC0012"/>
<path fill-rule="evenodd" clip-rule="evenodd" d="M21.9336 36.4337C21.7996 36.5676 21.6179 36.6429 21.4285 36.6429C21.239 36.6429 21.0574 36.5676 20.9234 36.4337C20.7894 36.2997 20.7142 36.118 20.7142 35.9286V18.5715C20.7153 17.6246 21.092 16.7169 21.7615 16.0473C22.431 15.3778 23.3388 15.0012 24.2856 15H37.857C38.2323 14.9992 38.604 15.0729 38.9506 15.2167C39.2972 15.3605 39.6119 15.5717 39.8763 15.8379L48.4478 24.4093C49.3438 25.2011 49.3125 26.5038 49.2862 27.5993V27.5993L49.2856 27.6215C49.2856 27.8109 49.2104 27.9926 49.0764 28.1265C48.9425 28.2605 48.7608 28.3357 48.5713 28.3357C48.3819 28.3357 48.2002 28.2605 48.0663 28.1265C47.9323 27.9926 47.857 27.8109 47.857 27.6215V26.4286C47.8546 26.0505 47.7033 25.6885 47.4359 25.4211C47.1686 25.1538 46.8066 25.0025 46.4285 25H42.857C41.9102 24.9989 41.0024 24.6223 40.3329 23.9527C39.6634 23.2832 39.2868 22.3755 39.2856 21.4286V17.8572C39.2849 17.4785 39.1341 17.1156 38.8664 16.8479C38.5986 16.5801 38.2357 16.4294 37.857 16.4286H24.2856C23.7175 16.4292 23.1728 16.6551 22.771 17.0569C22.3693 17.4586 22.1433 18.0033 22.1428 18.5715V35.9286C22.1428 36.118 22.0675 36.2997 21.9336 36.4337ZM45.5899 23.5715L40.7142 18.6958V21.4286C40.7148 21.9968 40.9407 22.5415 41.3424 22.9432C41.7442 23.3449 42.2889 23.5709 42.857 23.5715H45.5899ZM24.2857 28.5715H34.4786C34.668 28.5715 34.8497 28.6467 34.9837 28.7807C35.1176 28.9146 35.1929 29.0963 35.1929 29.2858C35.1929 29.4752 35.1176 29.6569 34.9837 29.7908C34.8497 29.9248 34.668 30.0001 34.4786 30.0001H24.2857C24.0963 30.0001 23.9146 29.9248 23.7806 29.7908C23.6467 29.6569 23.5714 29.4752 23.5714 29.2858C23.5714 29.0963 23.6467 28.9146 23.7806 28.7807C23.9146 28.6467 24.0963 28.5715 24.2857 28.5715ZM24.2857 34.2858H33.5714C33.7609 34.2858 33.9426 34.361 34.0765 34.495C34.2105 34.6289 34.2857 34.8106 34.2857 35.0001C34.2857 35.1895 34.2105 35.3712 34.0765 35.5051C33.9426 35.6391 33.7609 35.7143 33.5714 35.7143H24.2857C24.0963 35.7143 23.9146 35.6391 23.7806 35.5051C23.6467 35.3712 23.5714 35.1895 23.5714 35.0001C23.5714 34.8106 23.6467 34.6289 23.7806 34.495C23.9146 34.361 24.0963 34.2858 24.2857 34.2858ZM18.8094 39.3017C20.219 38.3599 21.8762 37.8572 23.5714 37.8572C25.8439 37.8598 28.0225 38.7638 29.6294 40.3706C31.2363 41.9775 32.1402 44.1562 32.1429 46.4286C32.1429 48.1239 31.6402 49.7811 30.6983 51.1907C29.7565 52.6002 28.4178 53.6988 26.8516 54.3476C25.2854 54.9963 23.5619 55.1661 21.8992 54.8354C20.2365 54.5046 18.7093 53.6883 17.5105 52.4895C16.3118 51.2908 15.4954 49.7635 15.1647 48.1008C14.834 46.4381 15.0037 44.7147 15.6525 43.1485C16.3012 41.5823 17.3998 40.2436 18.8094 39.3017ZM19.6031 52.3677C20.7777 53.1526 22.1587 53.5715 23.5714 53.5715C25.4652 53.5694 27.2808 52.8162 28.6199 51.4771C29.959 50.138 30.7122 48.3224 30.7143 46.4286C30.7143 45.0159 30.2954 43.6349 29.5105 42.4603C28.7256 41.2856 27.6101 40.3701 26.3049 39.8295C24.9997 39.2889 23.5635 39.1474 22.1779 39.423C20.7924 39.6986 19.5196 40.3789 18.5207 41.3779C17.5217 42.3768 16.8414 43.6495 16.5658 45.0351C16.2902 46.4207 16.4317 47.8569 16.9723 49.1621C17.5129 50.4673 18.4284 51.5828 19.6031 52.3677ZM21.5314 43.0616H25.6122C25.6933 43.0618 25.771 43.094 25.8284 43.1513C25.8858 43.2085 25.9182 43.2862 25.9186 43.3673C25.9186 43.5567 25.9938 43.7384 26.1278 43.8724C26.2618 44.0063 26.4434 44.0816 26.6329 44.0816C26.8223 44.0816 27.004 44.0063 27.138 43.8724C27.2719 43.7384 27.3472 43.5567 27.3472 43.3673C27.3466 42.9072 27.1635 42.4662 26.8381 42.1411C26.5126 41.8159 26.0715 41.6332 25.6114 41.633H24.2857V40.8166C24.2857 40.6271 24.2105 40.4454 24.0765 40.3115C23.9426 40.1775 23.7609 40.1023 23.5714 40.1023C23.382 40.1023 23.2003 40.1775 23.0664 40.3115C22.9324 40.4454 22.8572 40.6271 22.8572 40.8166V41.633H21.5307C21.0708 41.6334 20.6298 41.8162 20.3046 42.1413C19.9793 42.4665 19.7963 42.9074 19.7957 43.3673V45.408C19.7961 45.8682 19.9791 46.3093 20.3046 46.6347C20.63 46.96 21.0713 47.1428 21.5314 47.143H25.6122C25.6934 47.1432 25.7712 47.1755 25.8286 47.233C25.8861 47.2904 25.9184 47.3682 25.9186 47.4494V49.4901C25.9182 49.5714 25.8857 49.6491 25.8281 49.7064C25.7706 49.7637 25.6927 49.7959 25.6114 49.7959H21.5307C21.4496 49.7957 21.3719 49.7634 21.3145 49.7062C21.2571 49.6489 21.2247 49.5712 21.2243 49.4901C21.2243 49.3007 21.1491 49.119 21.0151 48.9851C20.8811 48.8511 20.6995 48.7759 20.51 48.7759C20.3206 48.7759 20.1389 48.8511 20.0049 48.9851C19.871 49.119 19.7957 49.3007 19.7957 49.4901C19.7963 49.9502 19.9794 50.3912 20.3048 50.7163C20.6303 51.0415 21.0714 51.2242 21.5314 51.2244H22.8572V52.0409C22.8572 52.2303 22.9324 52.412 23.0664 52.5459C23.2003 52.6799 23.382 52.7551 23.5714 52.7551C23.7609 52.7551 23.9426 52.6799 24.0765 52.5459C24.2105 52.412 24.2857 52.2303 24.2857 52.0409V51.2244H25.6122C26.0721 51.224 26.5131 51.0412 26.8383 50.7161C27.1636 50.3909 27.3466 49.9501 27.3472 49.4901V47.4494C27.3468 46.9893 27.1638 46.5481 26.8383 46.2228C26.5129 45.8974 26.0716 45.7146 25.6114 45.7144H21.5307C21.4495 45.7142 21.3717 45.6819 21.3143 45.6245C21.2568 45.567 21.2245 45.4892 21.2243 45.408V43.3673C21.2247 43.2861 21.2572 43.2083 21.3148 43.151C21.3723 43.0937 21.4502 43.0616 21.5314 43.0616ZM52.8572 29.7673H37.8572C37.289 29.7679 36.7443 29.9938 36.3426 30.3955C35.9408 30.7973 35.7149 31.342 35.7143 31.9101V52.8573C35.7149 53.4254 35.9408 53.9701 36.3426 54.3719C36.7443 54.7736 37.289 54.9996 37.8572 55.0001H52.8572C53.4253 54.9996 53.97 54.7736 54.3718 54.3719C54.7735 53.9701 54.9994 53.4254 55 52.8573V31.9101C54.9994 31.342 54.7735 30.7973 54.3718 30.3955C53.97 29.9938 53.4253 29.7679 52.8572 29.7673ZM53.5714 52.8573C53.5713 53.0467 53.4959 53.2282 53.362 53.3621C53.2281 53.4961 53.0465 53.5714 52.8572 53.5716H37.8572C37.6678 53.5714 37.4862 53.4961 37.3523 53.3621C37.2184 53.2282 37.1431 53.0467 37.1429 52.8573V31.9101C37.1431 31.7208 37.2184 31.5392 37.3523 31.4053C37.4862 31.2714 37.6678 31.196 37.8572 31.1959H52.8572C53.0465 31.196 53.2281 31.2714 53.362 31.4053C53.4959 31.5392 53.5713 31.7208 53.5714 31.9101V52.8573ZM38.8101 32.1429H51.9044C52.0938 32.1429 52.2755 32.2182 52.4094 32.3521C52.5434 32.4861 52.6186 32.6678 52.6186 32.8572V36.4286C52.6186 36.6181 52.5434 36.7998 52.4094 36.9337C52.2755 37.0677 52.0938 37.1429 51.9044 37.1429H38.8101C38.6206 37.1429 38.4389 37.0677 38.305 36.9337C38.171 36.7998 38.0958 36.6181 38.0958 36.4286V32.8572C38.0958 32.6678 38.171 32.4861 38.305 32.3521C38.4389 32.2182 38.6206 32.1429 38.8101 32.1429ZM39.5244 35.7144H51.1901V33.5715H39.5244V35.7144ZM39.5244 38.0958H40.4758C40.8545 38.0962 41.2177 38.2468 41.4855 38.5146C41.7533 38.7825 41.904 39.1456 41.9044 39.5244V40.4758C41.904 40.8546 41.7533 41.2177 41.4855 41.4855C41.2177 41.7534 40.8545 41.904 40.4758 41.9044H39.5244C39.1456 41.904 38.7824 41.7534 38.5146 41.4855C38.2468 41.2177 38.0962 40.8546 38.0958 40.4758V39.5244C38.0962 39.1456 38.2468 38.7825 38.5146 38.5146C38.7824 38.2468 39.1456 38.0962 39.5244 38.0958ZM39.5244 39.5244V40.4758H40.4772L40.4758 39.5244H39.5244ZM39.5244 43.4529H40.4758C40.8545 43.4533 41.2177 43.6039 41.4855 43.8718C41.7533 44.1396 41.904 44.5027 41.9044 44.8815V45.8329C41.904 46.2117 41.7533 46.5748 41.4855 46.8427C41.2177 47.1105 40.8545 47.2611 40.4758 47.2615H39.5244C39.1456 47.2611 38.7824 47.1105 38.5146 46.8427C38.2468 46.5748 38.0962 46.2117 38.0958 45.8329V44.8815C38.0962 44.5027 38.2468 44.1396 38.5146 43.8718C38.7824 43.6039 39.1456 43.4533 39.5244 43.4529ZM39.5244 44.8815V45.8329H40.4772L40.4758 44.8815H39.5244ZM39.5244 48.8101H40.4758C40.8545 48.8105 41.2177 48.9611 41.4855 49.2289C41.7533 49.4967 41.904 49.8599 41.9044 50.2386V51.1901C41.904 51.5688 41.7533 51.932 41.4855 52.1998C41.2177 52.4676 40.8545 52.6183 40.4758 52.6186H39.5244C39.1456 52.6183 38.7824 52.4676 38.5146 52.1998C38.2468 51.932 38.0962 51.5688 38.0958 51.1901V50.2386C38.0962 49.8599 38.2468 49.4967 38.5146 49.2289C38.7824 48.9611 39.1456 48.8105 39.5244 48.8101ZM39.5244 50.2386V51.1901H40.4772L40.4758 50.2386H39.5244ZM44.8815 38.0958H45.8329C46.2117 38.0962 46.5748 38.2468 46.8427 38.5146C47.1105 38.7825 47.2611 39.1456 47.2615 39.5244V40.4758C47.2611 40.8546 47.1105 41.2177 46.8427 41.4855C46.5748 41.7534 46.2117 41.904 45.8329 41.9044H44.8815C44.5027 41.904 44.1396 41.7534 43.8718 41.4855C43.6039 41.2177 43.4533 40.8546 43.4529 40.4758V39.5244C43.4533 39.1456 43.6039 38.7825 43.8718 38.5146C44.1396 38.2468 44.5027 38.0962 44.8815 38.0958ZM44.8815 39.5244V40.4758H45.8344L45.8329 39.5244H44.8815ZM44.8815 43.4529H45.8329C46.2117 43.4533 46.5748 43.6039 46.8427 43.8718C47.1105 44.1396 47.2611 44.5027 47.2615 44.8815V45.8329C47.2611 46.2117 47.1105 46.5748 46.8427 46.8427C46.5748 47.1105 46.2117 47.2611 45.8329 47.2615H44.8815C44.5027 47.2611 44.1396 47.1105 43.8718 46.8427C43.6039 46.5748 43.4533 46.2117 43.4529 45.8329V44.8815C43.4533 44.5027 43.6039 44.1396 43.8718 43.8718C44.1396 43.6039 44.5027 43.4533 44.8815 43.4529ZM44.8815 44.8815V45.8329H45.8344L45.8329 44.8815H44.8815ZM44.8815 48.8101H45.8329C46.2117 48.8105 46.5748 48.9611 46.8427 49.2289C47.1105 49.4967 47.2611 49.8599 47.2615 50.2386V51.1901C47.2611 51.5688 47.1105 51.932 46.8427 52.1998C46.5748 52.4676 46.2117 52.6183 45.8329 52.6186H44.8815C44.5027 52.6183 44.1396 52.4676 43.8718 52.1998C43.6039 51.932 43.4533 51.5688 43.4529 51.1901V50.2386C43.4533 49.8599 43.6039 49.4967 43.8718 49.2289C44.1396 48.9611 44.5027 48.8105 44.8815 48.8101ZM44.8815 50.2386V51.1901H45.8344L45.8329 50.2386H44.8815ZM50.2386 38.0958H51.1901C51.5688 38.0962 51.932 38.2468 52.1998 38.5146C52.4676 38.7825 52.6183 39.1456 52.6186 39.5244V40.4758C52.6183 40.8546 52.4676 41.2177 52.1998 41.4855C51.932 41.7534 51.5688 41.904 51.1901 41.9044H50.2386C49.8599 41.904 49.4967 41.7534 49.2289 41.4855C48.9611 41.2177 48.8104 40.8546 48.8101 40.4758V39.5244C48.8104 39.1456 48.9611 38.7825 49.2289 38.5146C49.4967 38.2468 49.8599 38.0962 50.2386 38.0958ZM50.2386 39.5244V40.4758H51.1915L51.1901 39.5244H50.2386ZM50.1186 43.4529H51.3101C51.6569 43.4535 51.9895 43.5915 52.2347 43.8368C52.48 44.0821 52.6181 44.4146 52.6186 44.7615V51.3101C52.6181 51.657 52.48 51.9895 52.2347 52.2347C51.9895 52.48 51.6569 52.6181 51.3101 52.6186H50.1186C49.7718 52.6181 49.4392 52.48 49.194 52.2347C48.9487 51.9895 48.8106 51.657 48.8101 51.3101V44.7615C48.8106 44.4146 48.9487 44.0821 49.194 43.8368C49.4392 43.5915 49.7718 43.4535 50.1186 43.4529ZM50.2386 51.1901H51.1901V44.8815H50.2386V51.1901Z" fill="white"/>
<path d="M20.7142 18.5715L20.5642 18.5713V18.5715H20.7142ZM21.7615 16.0473L21.6554 15.9413L21.7615 16.0473ZM24.2856 15V14.85L24.2854 14.85L24.2856 15ZM37.857 15V15.15L37.8574 15.15L37.857 15ZM38.9506 15.2167L39.0081 15.0782V15.0782L38.9506 15.2167ZM39.8763 15.8379L39.7699 15.9436L39.7703 15.944L39.8763 15.8379ZM48.4478 24.4093L48.3415 24.5156L48.3484 24.5217L48.4478 24.4093ZM49.2862 27.5993L49.1362 27.5957V27.5993H49.2862ZM49.2862 27.5993L49.4362 27.6029V27.5993H49.2862ZM49.2856 27.6215L49.1356 27.6178V27.6215H49.2856ZM49.0764 28.1265L49.1825 28.2326V28.2326L49.0764 28.1265ZM48.0663 28.1265L47.9602 28.2326L47.9602 28.2326L48.0663 28.1265ZM47.857 26.4286H48.007L48.007 26.4276L47.857 26.4286ZM47.4359 25.4211L47.542 25.3151L47.4359 25.4211ZM46.4285 25L46.4294 24.85H46.4285V25ZM42.857 25L42.8569 25.15H42.857V25ZM39.2856 21.4286H39.1356V21.4288L39.2856 21.4286ZM39.2856 17.8572H39.4356V17.8569L39.2856 17.8572ZM37.857 16.4286L37.8573 16.2786H37.857V16.4286ZM24.2856 16.4286V16.2786L24.2855 16.2786L24.2856 16.4286ZM22.771 17.0569L22.8771 17.1629L22.771 17.0569ZM22.1428 18.5715L21.9928 18.5713V18.5715H22.1428ZM40.7142 18.6958L40.8203 18.5897L40.5642 18.3336V18.6958H40.7142ZM45.5899 23.5715V23.7215H45.952L45.696 23.4654L45.5899 23.5715ZM40.7142 21.4286H40.5642V21.4288L40.7142 21.4286ZM41.3424 22.9432L41.2364 23.0493L41.3424 22.9432ZM42.857 23.5715L42.8569 23.7215H42.857V23.5715ZM34.9837 28.7807L35.0897 28.6746V28.6746L34.9837 28.7807ZM34.9837 29.7908L34.8776 29.6848V29.6848L34.9837 29.7908ZM23.7806 28.7807L23.6746 28.6746L23.6746 28.6746L23.7806 28.7807ZM34.0765 34.495L33.9704 34.601H33.9704L34.0765 34.495ZM23.7806 35.5051L23.6746 35.6112L23.6746 35.6112L23.7806 35.5051ZM23.7806 34.495L23.6746 34.3889H23.6746L23.7806 34.495ZM23.5714 37.8572L23.5716 37.7072H23.5714V37.8572ZM29.6294 40.3706L29.7355 40.2646L29.6294 40.3706ZM32.1429 46.4286H32.2929V46.4284L32.1429 46.4286ZM30.6983 51.1907L30.823 51.274L30.6983 51.1907ZM26.8516 54.3476L26.909 54.4862L26.8516 54.3476ZM21.8992 54.8354L21.87 54.9825L21.8992 54.8354ZM17.5105 52.4895L17.4045 52.5956H17.4045L17.5105 52.4895ZM15.1647 48.1008L15.0176 48.1301H15.0176L15.1647 48.1008ZM15.6525 43.1485L15.791 43.2059L15.6525 43.1485ZM23.5714 53.5715V53.7215H23.5716L23.5714 53.5715ZM19.6031 52.3677L19.5197 52.4924L19.6031 52.3677ZM28.6199 51.4771L28.726 51.5832L28.6199 51.4771ZM30.7143 46.4286L30.8643 46.4288V46.4286H30.7143ZM26.3049 39.8295L26.3623 39.6909L26.3049 39.8295ZM22.1779 39.423L22.1487 39.2759L22.1779 39.423ZM16.5658 45.0351L16.7129 45.0644L16.5658 45.0351ZM16.9723 49.1621L17.1109 49.1047L16.9723 49.1621ZM25.6122 43.0616L25.6125 42.9116H25.6122V43.0616ZM25.9186 43.3673H26.0686L26.0686 43.3666L25.9186 43.3673ZM26.1278 43.8724L26.2339 43.7663H26.2339L26.1278 43.8724ZM27.138 43.8724L27.244 43.9784H27.244L27.138 43.8724ZM27.3472 43.3673H27.4972L27.4972 43.3671L27.3472 43.3673ZM26.8381 42.1411L26.9441 42.035L26.8381 42.1411ZM25.6114 41.633L25.6115 41.483H25.6114V41.633ZM24.2857 41.633H24.1357V41.783H24.2857V41.633ZM24.0765 40.3115L23.9705 40.4176H23.9705L24.0765 40.3115ZM23.0664 40.3115L23.1724 40.4176H23.1724L23.0664 40.3115ZM22.8572 41.633V41.783H23.0072V41.633H22.8572ZM21.5307 41.633V41.483H21.5306L21.5307 41.633ZM20.3046 42.1413L20.4106 42.2474H20.4106L20.3046 42.1413ZM19.7957 43.3673L19.6457 43.3671V43.3673H19.7957ZM19.7957 45.408H19.6457V45.4081L19.7957 45.408ZM20.3046 46.6347L20.4106 46.5286V46.5286L20.3046 46.6347ZM21.5314 47.143L21.5314 47.293H21.5314V47.143ZM25.6122 47.143L25.6125 46.993H25.6122V47.143ZM25.9186 47.4494H26.0686L26.0686 47.4491L25.9186 47.4494ZM25.9186 49.4901L26.0686 49.4908V49.4901H25.9186ZM25.8281 49.7064L25.7223 49.6001L25.7223 49.6001L25.8281 49.7064ZM25.6114 49.7959L25.6115 49.6459H25.6114V49.7959ZM21.5307 49.7959L21.5304 49.9459H21.5307V49.7959ZM21.3145 49.7062L21.2086 49.8123L21.2086 49.8123L21.3145 49.7062ZM21.2243 49.4901H21.0743L21.0743 49.4908L21.2243 49.4901ZM21.0151 48.9851L21.1212 48.879L21.1212 48.879L21.0151 48.9851ZM20.0049 48.9851L19.8989 48.879L19.8989 48.879L20.0049 48.9851ZM19.7957 49.4901H19.6457V49.4903L19.7957 49.4901ZM21.5314 51.2244L21.5314 51.3744H21.5314V51.2244ZM22.8572 51.2244H23.0072V51.0744H22.8572V51.2244ZM23.0664 52.5459L23.1724 52.4399H23.1724L23.0664 52.5459ZM24.0765 52.5459L23.9705 52.4399H23.9705L24.0765 52.5459ZM24.2857 51.2244V51.0744H24.1357V51.2244H24.2857ZM25.6122 51.2244V51.3744H25.6123L25.6122 51.2244ZM26.8383 50.7161L26.9444 50.8222H26.9444L26.8383 50.7161ZM27.3472 49.4901L27.4972 49.4903V49.4901H27.3472ZM27.3472 47.4494H27.4972V47.4493L27.3472 47.4494ZM25.6114 45.7144L25.6115 45.5644H25.6114V45.7144ZM21.5307 45.7144L21.5304 45.8644H21.5307V45.7144ZM21.3143 45.6245L21.4203 45.5184L21.4203 45.5184L21.3143 45.6245ZM21.2243 45.408H21.0743L21.0743 45.4083L21.2243 45.408ZM21.2243 43.3673L21.0743 43.3666V43.3673H21.2243ZM21.3148 43.151L21.209 43.0447L21.209 43.0447L21.3148 43.151ZM37.8572 29.7673V29.6173H37.857L37.8572 29.7673ZM52.8572 29.7673L52.8573 29.6173H52.8572V29.7673ZM36.3426 30.3955L36.4486 30.5016L36.3426 30.3955ZM35.7143 31.9101L35.5643 31.91V31.9101H35.7143ZM35.7143 52.8573H35.5643V52.8574L35.7143 52.8573ZM36.3426 54.3719L36.4486 54.2658L36.3426 54.3719ZM37.8572 55.0001L37.857 55.1501H37.8572V55.0001ZM52.8572 55.0001V55.1501H52.8573L52.8572 55.0001ZM55 52.8573L55.15 52.8574V52.8573H55ZM55 31.9101H55.15V31.91L55 31.9101ZM53.362 53.3621L53.256 53.2561L53.256 53.2561L53.362 53.3621ZM53.5714 52.8573L53.7214 52.8574V52.8573H53.5714ZM52.8572 53.5716V53.7216H52.8573L52.8572 53.5716ZM37.8572 53.5716L37.857 53.7216H37.8572V53.5716ZM37.3523 53.3621L37.4584 53.2561L37.4584 53.2561L37.3523 53.3621ZM37.1429 52.8573H36.9929V52.8574L37.1429 52.8573ZM37.1429 31.9101L36.9929 31.91V31.9101H37.1429ZM37.8572 31.1959V31.0459H37.857L37.8572 31.1959ZM52.8572 31.1959L52.8573 31.0459H52.8572V31.1959ZM53.362 31.4053L53.256 31.5113L53.256 31.5113L53.362 31.4053ZM53.5714 31.9101H53.7214V31.91L53.5714 31.9101ZM52.4094 32.3521L52.5155 32.2461L52.5155 32.2461L52.4094 32.3521ZM52.4094 36.9337L52.5155 37.0398L52.5155 37.0398L52.4094 36.9337ZM38.305 36.9337L38.4111 36.8277H38.4111L38.305 36.9337ZM38.305 32.3521L38.4111 32.4582L38.4111 32.4582L38.305 32.3521ZM51.1901 35.7144V35.8644H51.3401V35.7144H51.1901ZM39.5244 35.7144H39.3744V35.8644H39.5244V35.7144ZM51.1901 33.5715H51.3401V33.4215H51.1901V33.5715ZM39.5244 33.5715V33.4215H39.3744V33.5715H39.5244ZM40.4758 38.0958L40.4759 37.9458H40.4758V38.0958ZM39.5244 38.0958V37.9458H39.5242L39.5244 38.0958ZM41.9044 39.5244H42.0544V39.5242L41.9044 39.5244ZM41.9044 40.4758L42.0544 40.4759V40.4758H41.9044ZM40.4758 41.9044V42.0544H40.4759L40.4758 41.9044ZM39.5244 41.9044L39.5242 42.0544H39.5244V41.9044ZM38.0958 40.4758H37.9458V40.4759L38.0958 40.4758ZM38.0958 39.5244L37.9458 39.5242V39.5244H38.0958ZM39.5244 40.4758H39.3744V40.6258H39.5244V40.4758ZM39.5244 39.5244V39.3744H39.3744V39.5244H39.5244ZM40.4772 40.4758V40.6258H40.6274L40.6272 40.4756L40.4772 40.4758ZM40.4758 39.5244L40.6258 39.5241L40.6256 39.3744H40.4758V39.5244ZM40.4758 43.4529L40.4759 43.3029H40.4758V43.4529ZM39.5244 43.4529V43.3029H39.5242L39.5244 43.4529ZM41.4855 43.8718L41.5916 43.7657L41.4855 43.8718ZM41.9044 44.8815H42.0544V44.8814L41.9044 44.8815ZM41.9044 45.8329L42.0544 45.8331V45.8329H41.9044ZM41.4855 46.8427L41.5916 46.9487L41.4855 46.8427ZM40.4758 47.2615V47.4115H40.4759L40.4758 47.2615ZM39.5244 47.2615L39.5242 47.4115H39.5244V47.2615ZM38.5146 46.8427L38.4086 46.9487L38.5146 46.8427ZM38.0958 45.8329H37.9458V45.8331L38.0958 45.8329ZM38.0958 44.8815L37.9458 44.8814V44.8815H38.0958ZM38.5146 43.8718L38.4086 43.7657L38.5146 43.8718ZM39.5244 45.8329H39.3744V45.9829H39.5244V45.8329ZM39.5244 44.8815V44.7315H39.3744V44.8815H39.5244ZM40.4772 45.8329V45.9829H40.6274L40.6272 45.8327L40.4772 45.8329ZM40.4758 44.8815L40.6258 44.8813L40.6256 44.7315H40.4758V44.8815ZM40.4758 48.8101L40.4759 48.6601H40.4758V48.8101ZM39.5244 48.8101V48.6601H39.5242L39.5244 48.8101ZM41.4855 49.2289L41.5916 49.1228L41.5916 49.1228L41.4855 49.2289ZM41.9044 50.2386H42.0544V50.2385L41.9044 50.2386ZM41.9044 51.1901L42.0544 51.1902V51.1901H41.9044ZM41.4855 52.1998L41.5916 52.3059L41.4855 52.1998ZM40.4758 52.6186V52.7687H40.4759L40.4758 52.6186ZM39.5244 52.6186L39.5242 52.7687H39.5244V52.6186ZM38.5146 52.1998L38.4086 52.3059L38.5146 52.1998ZM38.0958 51.1901H37.9458V51.1902L38.0958 51.1901ZM38.0958 50.2386L37.9458 50.2385V50.2386H38.0958ZM38.5146 49.2289L38.4086 49.1228L38.4086 49.1228L38.5146 49.2289ZM39.5244 51.1901H39.3744V51.3401H39.5244V51.1901ZM39.5244 50.2386V50.0886H39.3744V50.2386H39.5244ZM40.4772 51.1901V51.3401H40.6274L40.6272 51.1898L40.4772 51.1901ZM40.4758 50.2386L40.6258 50.2384L40.6256 50.0886H40.4758V50.2386ZM45.8329 38.0958L45.8331 37.9458H45.8329V38.0958ZM44.8815 38.0958V37.9458H44.8813L44.8815 38.0958ZM46.8427 38.5146L46.7366 38.6207L46.8427 38.5146ZM47.2615 39.5244H47.4115V39.5242L47.2615 39.5244ZM47.2615 40.4758L47.4115 40.4759V40.4758H47.2615ZM46.8427 41.4855L46.7366 41.3795L46.8427 41.4855ZM45.8329 41.9044V42.0544H45.8331L45.8329 41.9044ZM44.8815 41.9044L44.8813 42.0544H44.8815V41.9044ZM43.4529 40.4758H43.3029V40.4759L43.4529 40.4758ZM43.4529 39.5244L43.3029 39.5242V39.5244H43.4529ZM44.8815 40.4758H44.7315V40.6258H44.8815V40.4758ZM44.8815 39.5244V39.3744H44.7315V39.5244H44.8815ZM45.8344 40.4758V40.6258H45.9846L45.9844 40.4756L45.8344 40.4758ZM45.8329 39.5244L45.9829 39.5241L45.9827 39.3744H45.8329V39.5244ZM45.8329 43.4529L45.8331 43.3029H45.8329V43.4529ZM44.8815 43.4529V43.3029H44.8813L44.8815 43.4529ZM46.8427 43.8718L46.9487 43.7657L46.8427 43.8718ZM47.2615 44.8815H47.4115V44.8814L47.2615 44.8815ZM47.2615 45.8329L47.4115 45.8331V45.8329H47.2615ZM45.8329 47.2615V47.4115H45.8331L45.8329 47.2615ZM44.8815 47.2615L44.8813 47.4115H44.8815V47.2615ZM43.8718 46.8427L43.7657 46.9487L43.8718 46.8427ZM43.4529 45.8329H43.3029V45.8331L43.4529 45.8329ZM43.4529 44.8815L43.3029 44.8814V44.8815H43.4529ZM43.8718 43.8718L43.7657 43.7657L43.8718 43.8718ZM44.8815 45.8329H44.7315V45.9829H44.8815V45.8329ZM44.8815 44.8815V44.7315H44.7315V44.8815H44.8815ZM45.8344 45.8329V45.9829H45.9846L45.9844 45.8327L45.8344 45.8329ZM45.8329 44.8815L45.9829 44.8813L45.9827 44.7315H45.8329V44.8815ZM45.8329 48.8101L45.8331 48.6601H45.8329V48.8101ZM44.8815 48.8101V48.6601H44.8813L44.8815 48.8101ZM46.8427 49.2289L46.9487 49.1228V49.1228L46.8427 49.2289ZM47.2615 50.2386H47.4115V50.2385L47.2615 50.2386ZM47.2615 51.1901L47.4115 51.1902V51.1901H47.2615ZM45.8329 52.6186V52.7687H45.8331L45.8329 52.6186ZM44.8815 52.6186L44.8813 52.7687H44.8815V52.6186ZM43.8718 52.1998L43.7657 52.3059L43.8718 52.1998ZM43.4529 51.1901H43.3029V51.1902L43.4529 51.1901ZM43.4529 50.2386L43.3029 50.2385V50.2386H43.4529ZM43.8718 49.2289L43.7657 49.1228L43.7657 49.1228L43.8718 49.2289ZM44.8815 51.1901H44.7315V51.3401H44.8815V51.1901ZM44.8815 50.2386V50.0886H44.7315V50.2386H44.8815ZM45.8344 51.1901V51.3401H45.9846L45.9844 51.1898L45.8344 51.1901ZM45.8329 50.2386L45.9829 50.2384L45.9827 50.0886H45.8329V50.2386ZM51.1901 38.0958L51.1902 37.9458H51.1901V38.0958ZM50.2386 38.0958V37.9458H50.2385L50.2386 38.0958ZM52.1998 38.5146L52.0937 38.6207L52.1998 38.5146ZM52.6186 39.5244H52.7686V39.5242L52.6186 39.5244ZM52.6186 40.4758L52.7686 40.4759V40.4758H52.6186ZM52.1998 41.4855L52.0937 41.3795L52.1998 41.4855ZM51.1901 41.9044V42.0544H51.1902L51.1901 41.9044ZM50.2386 41.9044L50.2385 42.0544H50.2386V41.9044ZM49.2289 41.4855L49.1228 41.5916H49.1228L49.2289 41.4855ZM48.8101 40.4758H48.6601V40.4759L48.8101 40.4758ZM48.8101 39.5244L48.6601 39.5242V39.5244H48.8101ZM49.2289 38.5146L49.1228 38.4086H49.1228L49.2289 38.5146ZM50.2386 40.4758H50.0886V40.6258H50.2386V40.4758ZM50.2386 39.5244V39.3744H50.0886V39.5244H50.2386ZM51.1915 40.4758V40.6258H51.3417L51.3415 40.4756L51.1915 40.4758ZM51.1901 39.5244L51.3401 39.5241L51.3398 39.3744H51.1901V39.5244ZM51.3101 43.4529L51.3103 43.3029H51.3101V43.4529ZM50.1186 43.4529V43.3029H50.1184L50.1186 43.4529ZM52.2347 43.8368L52.1287 43.9429L52.2347 43.8368ZM52.6186 44.7615H52.7686V44.7613L52.6186 44.7615ZM52.6186 51.3101L52.7686 51.3103V51.3101H52.6186ZM52.2347 52.2347L52.1287 52.1287V52.1287L52.2347 52.2347ZM51.3101 52.6186V52.7687H51.3103L51.3101 52.6186ZM50.1186 52.6186L50.1184 52.7687H50.1186V52.6186ZM49.194 52.2347L49.3 52.1287V52.1287L49.194 52.2347ZM48.8101 51.3101H48.6601V51.3103L48.8101 51.3101ZM48.8101 44.7615L48.6601 44.7613V44.7615H48.8101ZM49.194 43.8368L49.3 43.9429L49.194 43.8368ZM51.1901 51.1901V51.3401H51.3401V51.1901H51.1901ZM50.2386 51.1901H50.0886V51.3401H50.2386V51.1901ZM51.1901 44.8815H51.3401V44.7315H51.1901V44.8815ZM50.2386 44.8815V44.7315H50.0886V44.8815H50.2386ZM21.4285 36.7929C21.6577 36.7929 21.8775 36.7018 22.0396 36.5397L21.8275 36.3276C21.7217 36.4334 21.5781 36.4929 21.4285 36.4929V36.7929ZM20.8173 36.5397C20.9794 36.7018 21.1993 36.7929 21.4285 36.7929V36.4929C21.2788 36.4929 21.1353 36.4334 21.0295 36.3276L20.8173 36.5397ZM20.5642 35.9286C20.5642 36.1578 20.6553 36.3777 20.8173 36.5397L21.0295 36.3276C20.9236 36.2218 20.8642 36.0783 20.8642 35.9286H20.5642ZM20.5642 18.5715V35.9286H20.8642V18.5715H20.5642ZM21.6554 15.9413C20.9578 16.6389 20.5654 17.5847 20.5642 18.5713L20.8642 18.5716C20.8653 17.6645 21.2261 16.7948 21.8676 16.1534L21.6554 15.9413ZM24.2854 14.85C23.2989 14.8512 22.353 15.2437 21.6554 15.9413L21.8676 16.1534C22.509 15.512 23.3787 15.1511 24.2858 15.15L24.2854 14.85ZM37.857 14.85H24.2856V15.15H37.857V14.85ZM39.0081 15.0782C38.6432 14.9267 38.2518 14.8492 37.8567 14.85L37.8574 15.15C38.2128 15.1493 38.5648 15.219 38.8931 15.3553L39.0081 15.0782ZM39.9827 15.7322C39.7043 15.4519 39.373 15.2296 39.0081 15.0782L38.8931 15.3553C39.2214 15.4915 39.5194 15.6914 39.7699 15.9436L39.9827 15.7322ZM48.5538 24.3033L39.9824 15.7318L39.7703 15.944L48.3417 24.5154L48.5538 24.3033ZM49.4361 27.6029C49.4492 27.058 49.4645 26.443 49.3605 25.8639C49.256 25.282 49.0288 24.7225 48.5471 24.2969L48.3484 24.5217C48.7628 24.8879 48.968 25.3757 49.0652 25.917C49.163 26.461 49.1494 27.0451 49.1362 27.5957L49.4361 27.6029ZM49.4362 27.5993V27.5993H49.1362V27.5993H49.4362ZM49.4356 27.6251L49.4361 27.6029L49.1362 27.5957L49.1357 27.6178L49.4356 27.6251ZM49.1825 28.2326C49.3446 28.0705 49.4356 27.8507 49.4356 27.6215H49.1356C49.1356 27.7711 49.0762 27.9147 48.9703 28.0205L49.1825 28.2326ZM48.5713 28.4857C48.8006 28.4857 49.0204 28.3947 49.1825 28.2326L48.9703 28.0205C48.8645 28.1263 48.721 28.1858 48.5713 28.1858V28.4857ZM47.9602 28.2326C48.1223 28.3947 48.3421 28.4857 48.5713 28.4857V28.1858C48.4217 28.1858 48.2781 28.1263 48.1723 28.0205L47.9602 28.2326ZM47.707 27.6215C47.707 27.8507 47.7981 28.0705 47.9602 28.2326L48.1723 28.0205C48.0665 27.9147 48.007 27.7711 48.007 27.6215H47.707ZM47.707 26.4286V27.6215H48.007V26.4286H47.707ZM47.3299 25.5272C47.5694 25.7667 47.7049 26.0909 47.7071 26.4296L48.007 26.4276C48.0044 26.0101 47.8373 25.6104 47.542 25.3151L47.3299 25.5272ZM46.4275 25.15C46.7662 25.1522 47.0904 25.2877 47.3299 25.5272L47.542 25.3151C47.2467 25.0198 46.847 24.8527 46.4294 24.85L46.4275 25.15ZM42.857 25.15H46.4285V24.85H42.857V25.15ZM40.2269 24.0588C40.9245 24.7564 41.8703 25.1489 42.8569 25.15L42.8572 24.85C41.9501 24.8489 41.0804 24.4881 40.439 23.8467L40.2269 24.0588ZM39.1356 21.4288C39.1368 22.4154 39.5292 23.3612 40.2269 24.0588L40.439 23.8467C39.7975 23.2052 39.4367 22.3356 39.4356 21.4284L39.1356 21.4288ZM39.1356 17.8572V21.4286H39.4356V17.8572H39.1356ZM38.7603 16.9539C39 17.1936 39.1349 17.5185 39.1356 17.8575L39.4356 17.8569C39.4348 17.4386 39.2682 17.0376 38.9724 16.7418L38.7603 16.9539ZM37.8567 16.5786C38.1957 16.5793 38.5206 16.7142 38.7603 16.9539L38.9724 16.7418C38.6766 16.446 38.2757 16.2794 37.8573 16.2786L37.8567 16.5786ZM24.2856 16.5786H37.857V16.2786H24.2856V16.5786ZM22.8771 17.1629C23.2507 16.7893 23.7574 16.5791 24.2858 16.5786L24.2855 16.2786C23.6776 16.2792 23.0948 16.521 22.665 16.9508L22.8771 17.1629ZM22.2928 18.5716C22.2933 18.0432 22.5034 17.5366 22.8771 17.1629L22.665 16.9508C22.2351 17.3806 21.9934 17.9634 21.9928 18.5713L22.2928 18.5716ZM22.2928 35.9286V18.5715H21.9928V35.9286H22.2928ZM22.0396 36.5397C22.2017 36.3777 22.2928 36.1578 22.2928 35.9286H21.9928C21.9928 36.0783 21.9333 36.2218 21.8275 36.3276L22.0396 36.5397ZM40.6081 18.8018L45.4838 23.6775L45.696 23.4654L40.8203 18.5897L40.6081 18.8018ZM40.8642 21.4286V18.6958H40.5642V21.4286H40.8642ZM41.4485 22.8371C41.0749 22.4635 40.8647 21.9569 40.8642 21.4285L40.5642 21.4288C40.5648 22.0366 40.8065 22.6194 41.2364 23.0493L41.4485 22.8371ZM42.8572 23.4215C42.3288 23.4209 41.8222 23.2108 41.4485 22.8371L41.2364 23.0493C41.6662 23.4791 42.249 23.7209 42.8569 23.7215L42.8572 23.4215ZM45.5899 23.4215H42.857V23.7215H45.5899V23.4215ZM34.4786 28.4215H24.2857V28.7215H34.4786V28.4215ZM35.0897 28.6746C34.9276 28.5125 34.7078 28.4215 34.4786 28.4215V28.7215C34.6282 28.7215 34.7718 28.7809 34.8776 28.8868L35.0897 28.6746ZM35.3429 29.2858C35.3429 29.0565 35.2518 28.8367 35.0897 28.6746L34.8776 28.8868C34.9834 28.9926 35.0429 29.1361 35.0429 29.2858H35.3429ZM35.0897 29.8969C35.2518 29.7348 35.3429 29.515 35.3429 29.2858H35.0429C35.0429 29.4354 34.9834 29.579 34.8776 29.6848L35.0897 29.8969ZM34.4786 30.1501C34.7078 30.1501 34.9276 30.059 35.0897 29.8969L34.8776 29.6848C34.7718 29.7906 34.6282 29.8501 34.4786 29.8501V30.1501ZM24.2857 30.1501H34.4786V29.8501H24.2857V30.1501ZM23.6746 29.8969C23.8367 30.059 24.0565 30.1501 24.2857 30.1501V29.8501C24.1361 29.8501 23.9925 29.7906 23.8867 29.6848L23.6746 29.8969ZM23.4214 29.2858C23.4214 29.515 23.5125 29.7348 23.6746 29.8969L23.8867 29.6848C23.7809 29.579 23.7214 29.4354 23.7214 29.2858H23.4214ZM23.6746 28.6746C23.5125 28.8367 23.4214 29.0565 23.4214 29.2858H23.7214C23.7214 29.1361 23.7809 28.9926 23.8867 28.8868L23.6746 28.6746ZM24.2857 28.4215C24.0565 28.4215 23.8367 28.5125 23.6746 28.6746L23.8867 28.8868C23.9925 28.7809 24.1361 28.7215 24.2857 28.7215V28.4215ZM33.5714 34.1358H24.2857V34.4358H33.5714V34.1358ZM34.1826 34.3889C34.0205 34.2268 33.8007 34.1358 33.5714 34.1358V34.4358C33.7211 34.4358 33.8646 34.4952 33.9704 34.601L34.1826 34.3889ZM34.4357 35.0001C34.4357 34.7708 34.3447 34.551 34.1826 34.3889L33.9704 34.601C34.0763 34.7069 34.1357 34.8504 34.1357 35.0001H34.4357ZM34.1826 35.6112C34.3447 35.4491 34.4357 35.2293 34.4357 35.0001H34.1357C34.1357 35.1497 34.0763 35.2932 33.9704 35.3991L34.1826 35.6112ZM33.5714 35.8643C33.8007 35.8643 34.0205 35.7733 34.1826 35.6112L33.9704 35.3991C33.8646 35.5049 33.7211 35.5643 33.5714 35.5643V35.8643ZM24.2857 35.8643H33.5714V35.5643H24.2857V35.8643ZM23.6746 35.6112C23.8367 35.7733 24.0565 35.8643 24.2857 35.8643V35.5643C24.1361 35.5643 23.9925 35.5049 23.8867 35.3991L23.6746 35.6112ZM23.4214 35.0001C23.4214 35.2293 23.5125 35.4491 23.6746 35.6112L23.8867 35.3991C23.7809 35.2932 23.7214 35.1497 23.7214 35.0001H23.4214ZM23.6746 34.3889C23.5125 34.551 23.4214 34.7708 23.4214 35.0001H23.7214C23.7214 34.8504 23.7809 34.7069 23.8867 34.601L23.6746 34.3889ZM24.2857 34.1358C24.0565 34.1358 23.8367 34.2268 23.6746 34.3889L23.8867 34.601C23.9925 34.4952 24.1361 34.4358 24.2857 34.4358V34.1358ZM23.5714 37.7072C21.8465 37.7072 20.1603 38.2187 18.7261 39.177L18.8927 39.4265C20.2776 38.5011 21.9058 38.0072 23.5714 38.0072V37.7072ZM29.7355 40.2646C28.1005 38.6296 25.8838 37.7099 23.5716 37.7072L23.5713 38.0072C25.804 38.0098 27.9446 38.8979 29.5234 40.4767L29.7355 40.2646ZM32.2929 46.4284C32.2902 44.1163 31.3705 41.8995 29.7355 40.2646L29.5234 40.4767C31.1022 42.0555 31.9903 44.196 31.9929 46.4288L32.2929 46.4284ZM30.823 51.274C31.7814 49.8398 32.2929 48.1536 32.2929 46.4286H31.9929C31.9929 48.0942 31.499 49.7224 30.5736 51.1073L30.823 51.274ZM26.909 54.4862C28.5026 53.8261 29.8647 52.7082 30.823 51.274L30.5736 51.1073C29.6482 52.4922 28.333 53.5716 26.7942 54.209L26.909 54.4862ZM21.87 54.9825C23.5618 55.319 25.3153 55.1463 26.909 54.4862L26.7942 54.209C25.2554 54.8464 23.5621 55.0132 21.9285 54.6882L21.87 54.9825ZM17.4045 52.5956C18.6242 53.8153 20.1782 54.646 21.87 54.9825L21.9285 54.6882C20.2949 54.3633 18.7943 53.5612 17.6166 52.3835L17.4045 52.5956ZM15.0176 48.1301C15.3541 49.8219 16.1847 51.3759 17.4045 52.5956L17.6166 52.3835C16.4388 51.2057 15.6368 49.7052 15.3118 48.0716L15.0176 48.1301ZM15.5139 43.0911C14.8538 44.6847 14.6811 46.4383 15.0176 48.1301L15.3118 48.0716C14.9869 46.438 15.1536 44.7447 15.791 43.2059L15.5139 43.0911ZM18.7261 39.177C17.2918 40.1353 16.174 41.4974 15.5139 43.0911L15.791 43.2059C16.4284 41.6671 17.5078 40.3518 18.8927 39.4265L18.7261 39.177ZM23.5714 53.4215C22.1884 53.4215 20.8364 53.0114 19.6864 52.243L19.5197 52.4924C20.719 53.2938 22.129 53.7215 23.5714 53.7215V53.4215ZM28.5138 51.371C27.2028 52.682 25.4253 53.4194 23.5713 53.4215L23.5716 53.7215C25.5051 53.7194 27.3588 52.9503 28.726 51.5832L28.5138 51.371ZM30.5643 46.4285C30.5623 48.2825 29.8248 50.06 28.5138 51.371L28.726 51.5832C30.0931 50.216 30.8622 48.3623 30.8643 46.4288L30.5643 46.4285ZM29.3858 42.5436C30.1542 43.6936 30.5643 45.0456 30.5643 46.4286H30.8643C30.8643 44.9862 30.4366 43.5762 29.6352 42.3769L29.3858 42.5436ZM26.2475 39.9681C27.5253 40.4973 28.6174 41.3936 29.3858 42.5436L29.6352 42.3769C28.8339 41.1776 27.6949 40.2429 26.3623 39.6909L26.2475 39.9681ZM22.2072 39.5701C23.5637 39.3003 24.9697 39.4388 26.2475 39.9681L26.3623 39.6909C25.0297 39.1389 23.5633 38.9945 22.1487 39.2759L22.2072 39.5701ZM18.6267 41.4839C19.6047 40.506 20.8507 39.84 22.2072 39.5701L22.1487 39.2759C20.734 39.5573 19.4345 40.2519 18.4146 41.2718L18.6267 41.4839ZM16.7129 45.0644C16.9828 43.7079 17.6488 42.4619 18.6267 41.4839L18.4146 41.2718C17.3947 42.2917 16.7001 43.5912 16.4187 45.0059L16.7129 45.0644ZM17.1109 49.1047C16.5816 47.8269 16.4431 46.4209 16.7129 45.0644L16.4187 45.0059C16.1373 46.4205 16.2817 47.8869 16.8337 49.2195L17.1109 49.1047ZM19.6864 52.243C18.5364 51.4746 17.6401 50.3825 17.1109 49.1047L16.8337 49.2195C17.3857 50.5521 18.3204 51.6911 19.5197 52.4924L19.6864 52.243ZM25.6122 42.9116H21.5314V43.2116H25.6122V42.9116ZM25.9343 43.0451C25.8489 42.9598 25.7332 42.9118 25.6125 42.9116L25.6118 43.2116C25.6533 43.2117 25.6931 43.2282 25.7224 43.2575L25.9343 43.0451ZM26.0686 43.3666C26.068 43.2459 26.0198 43.1303 25.9343 43.0451L25.7224 43.2575C25.7518 43.2868 25.7684 43.3265 25.7686 43.368L26.0686 43.3666ZM26.2339 43.7663C26.128 43.6605 26.0686 43.5169 26.0686 43.3673H25.7686C25.7686 43.5965 25.8597 43.8163 26.0217 43.9784L26.2339 43.7663ZM26.6329 43.9316C26.4832 43.9316 26.3397 43.8721 26.2339 43.7663L26.0217 43.9784C26.1838 44.1405 26.4037 44.2316 26.6329 44.2316V43.9316ZM27.0319 43.7663C26.9261 43.8721 26.7825 43.9316 26.6329 43.9316V44.2316C26.8621 44.2316 27.0819 44.1405 27.244 43.9784L27.0319 43.7663ZM27.1972 43.3673C27.1972 43.5169 27.1377 43.6605 27.0319 43.7663L27.244 43.9784C27.4061 43.8163 27.4972 43.5965 27.4972 43.3673H27.1972ZM26.732 42.2472C27.0294 42.5443 27.1966 42.9472 27.1972 43.3675L27.4972 43.3671C27.4965 42.8673 27.2976 42.3882 26.9441 42.035L26.732 42.2472ZM25.6114 41.783C26.0317 41.7832 26.4347 41.9501 26.732 42.2472L26.9441 42.035C26.5906 41.6817 26.1113 41.4832 25.6115 41.483L25.6114 41.783ZM24.2857 41.783H25.6114V41.483H24.2857V41.783ZM24.1357 40.8166V41.633H24.4357V40.8166H24.1357ZM23.9705 40.4176C24.0763 40.5234 24.1357 40.6669 24.1357 40.8166H24.4357C24.4357 40.5873 24.3447 40.3675 24.1826 40.2054L23.9705 40.4176ZM23.5714 40.2523C23.7211 40.2523 23.8646 40.3117 23.9705 40.4176L24.1826 40.2054C24.0205 40.0433 23.8007 39.9523 23.5714 39.9523V40.2523ZM23.1724 40.4176C23.2783 40.3117 23.4218 40.2523 23.5714 40.2523V39.9523C23.3422 39.9523 23.1224 40.0433 22.9603 40.2054L23.1724 40.4176ZM23.0072 40.8166C23.0072 40.6669 23.0666 40.5234 23.1724 40.4176L22.9603 40.2054C22.7982 40.3675 22.7072 40.5873 22.7072 40.8166H23.0072ZM23.0072 41.633V40.8166H22.7072V41.633H23.0072ZM21.5307 41.783H22.8572V41.483H21.5307V41.783ZM20.4106 42.2474C20.7078 41.9504 21.1107 41.7833 21.5309 41.783L21.5306 41.483C21.031 41.4834 20.5519 41.682 20.1985 42.0352L20.4106 42.2474ZM19.9457 43.3675C19.9463 42.9473 20.1134 42.5445 20.4106 42.2474L20.1985 42.0352C19.8452 42.3885 19.6464 42.8675 19.6457 43.3671L19.9457 43.3675ZM19.9457 45.408V43.3673H19.6457V45.408H19.9457ZM20.4106 46.5286C20.1133 46.2314 19.9461 45.8283 19.9457 45.4079L19.6457 45.4081C19.6461 45.908 19.845 46.3873 20.1985 46.7407L20.4106 46.5286ZM21.5315 46.993C21.1111 46.9928 20.708 46.8258 20.4106 46.5286L20.1985 46.7407C20.5521 47.0942 21.0315 47.2928 21.5314 47.293L21.5315 46.993ZM25.6122 46.993H21.5314V47.293H25.6122V46.993ZM25.9347 47.1269C25.8492 47.0414 25.7334 46.9933 25.6125 46.993L25.6118 47.293C25.6534 47.2931 25.6932 47.3096 25.7226 47.339L25.9347 47.1269ZM26.0686 47.4491C26.0683 47.3282 26.0202 47.2124 25.9347 47.1269L25.7226 47.339C25.7519 47.3684 25.7685 47.4082 25.7686 47.4498L26.0686 47.4491ZM26.0686 49.4901V47.4494H25.7686V49.4901H26.0686ZM25.9339 49.8127C26.0196 49.7274 26.068 49.6117 26.0686 49.4908L25.7686 49.4894C25.7684 49.531 25.7518 49.5708 25.7223 49.6001L25.9339 49.8127ZM25.6114 49.9459C25.7323 49.9459 25.8483 49.898 25.9339 49.8127L25.7223 49.6001C25.6929 49.6294 25.653 49.6459 25.6115 49.6459L25.6114 49.9459ZM21.5307 49.9459H25.6114V49.6459H21.5307V49.9459ZM21.2086 49.8123C21.294 49.8976 21.4097 49.9456 21.5304 49.9459L21.5311 49.6459C21.4896 49.6458 21.4498 49.6293 21.4205 49.6L21.2086 49.8123ZM21.0743 49.4908C21.0749 49.6115 21.1231 49.7271 21.2086 49.8123L21.4205 49.6C21.3911 49.5707 21.3745 49.5309 21.3743 49.4894L21.0743 49.4908ZM20.909 49.0911C21.0149 49.197 21.0743 49.3405 21.0743 49.4901H21.3743C21.3743 49.2609 21.2832 49.0411 21.1212 48.879L20.909 49.0911ZM20.51 48.9259C20.6597 48.9259 20.8032 48.9853 20.909 49.0911L21.1212 48.879C20.9591 48.7169 20.7392 48.6259 20.51 48.6259V48.9259ZM20.111 49.0911C20.2168 48.9853 20.3604 48.9259 20.51 48.9259V48.6259C20.2808 48.6259 20.061 48.7169 19.8989 48.879L20.111 49.0911ZM19.9457 49.4901C19.9457 49.3405 20.0052 49.197 20.111 49.0911L19.8989 48.879C19.7368 49.0411 19.6457 49.2609 19.6457 49.4901H19.9457ZM20.4109 50.6102C20.1135 50.3132 19.9463 49.9102 19.9457 49.49L19.6457 49.4903C19.6464 49.9901 19.8453 50.4692 20.1988 50.8225L20.4109 50.6102ZM21.5315 51.0744C21.1112 51.0743 20.7082 50.9073 20.4109 50.6102L20.1988 50.8225C20.5523 51.1757 21.0316 51.3742 21.5314 51.3744L21.5315 51.0744ZM22.8572 51.0744H21.5314V51.3744H22.8572V51.0744ZM23.0072 52.0409V51.2244H22.7072V52.0409H23.0072ZM23.1724 52.4399C23.0666 52.334 23.0072 52.1905 23.0072 52.0409H22.7072C22.7072 52.2701 22.7982 52.4899 22.9603 52.652L23.1724 52.4399ZM23.5714 52.6051C23.4218 52.6051 23.2783 52.5457 23.1724 52.4399L22.9603 52.652C23.1224 52.8141 23.3422 52.9051 23.5714 52.9051V52.6051ZM23.9705 52.4399C23.8646 52.5457 23.7211 52.6051 23.5714 52.6051V52.9051C23.8007 52.9051 24.0205 52.8141 24.1826 52.652L23.9705 52.4399ZM24.1357 52.0409C24.1357 52.1905 24.0763 52.334 23.9705 52.4399L24.1826 52.652C24.3447 52.4899 24.4357 52.2701 24.4357 52.0409H24.1357ZM24.1357 51.2244V52.0409H24.4357V51.2244H24.1357ZM25.6122 51.0744H24.2857V51.3744H25.6122V51.0744ZM26.7323 50.61C26.4351 50.9071 26.0322 51.0741 25.612 51.0744L25.6123 51.3744C26.1119 51.374 26.591 51.1754 26.9444 50.8222L26.7323 50.61ZM27.1972 49.49C27.1966 49.9101 27.0295 50.313 26.7323 50.61L26.9444 50.8222C27.2977 50.4689 27.4965 49.99 27.4972 49.4903L27.1972 49.49ZM27.1972 47.4494V49.4901H27.4972V47.4494H27.1972ZM26.7323 46.3288C27.0296 46.6261 27.1968 47.0291 27.1972 47.4495L27.4972 47.4493C27.4968 46.9494 27.2979 46.4701 26.9444 46.1167L26.7323 46.3288ZM25.6114 45.8644C26.0318 45.8646 26.4349 46.0316 26.7323 46.3288L26.9444 46.1167C26.5908 45.7633 26.1114 45.5646 25.6115 45.5644L25.6114 45.8644ZM21.5307 45.8644H25.6114V45.5644H21.5307V45.8644ZM21.2082 45.7305C21.2937 45.816 21.4095 45.8641 21.5304 45.8644L21.5311 45.5644C21.4895 45.5643 21.4497 45.5478 21.4203 45.5184L21.2082 45.7305ZM21.0743 45.4083C21.0746 45.5292 21.1227 45.6451 21.2082 45.7305L21.4203 45.5184C21.391 45.489 21.3744 45.4492 21.3743 45.4076L21.0743 45.4083ZM21.0743 43.3673V45.408H21.3743V43.3673H21.0743ZM21.209 43.0447C21.1233 43.13 21.0749 43.2457 21.0743 43.3666L21.3743 43.368C21.3745 43.3264 21.3911 43.2866 21.4206 43.2573L21.209 43.0447ZM21.5314 42.9116C21.4106 42.9116 21.2946 42.9594 21.209 43.0447L21.4206 43.2573C21.45 43.228 21.4899 43.2116 21.5314 43.2116V42.9116ZM37.8572 29.9173H52.8572V29.6173H37.8572V29.9173ZM36.4486 30.5016C36.8223 30.128 37.3289 29.9178 37.8573 29.9173L37.857 29.6173C37.2491 29.6179 36.6663 29.8596 36.2365 30.2895L36.4486 30.5016ZM35.8643 31.9103C35.8648 31.3819 36.075 30.8753 36.4486 30.5016L36.2365 30.2895C35.8067 30.7193 35.5649 31.3021 35.5643 31.91L35.8643 31.9103ZM35.8643 52.8573V31.9101H35.5643V52.8573H35.8643ZM36.4486 54.2658C36.075 53.8922 35.8648 53.3856 35.8643 52.8571L35.5643 52.8574C35.5649 53.4653 35.8067 54.0481 36.2365 54.478L36.4486 54.2658ZM37.8573 54.8501C37.3289 54.8496 36.8223 54.6395 36.4486 54.2658L36.2365 54.478C36.6663 54.9078 37.2491 55.1495 37.857 55.1501L37.8573 54.8501ZM52.8572 54.8501H37.8572V55.1501H52.8572V54.8501ZM54.2657 54.2658C53.892 54.6395 53.3854 54.8496 52.857 54.8501L52.8573 55.1501C53.4652 55.1495 54.048 54.9078 54.4778 54.478L54.2657 54.2658ZM54.85 52.8571C54.8495 53.3856 54.6393 53.8922 54.2657 54.2658L54.4778 54.478C54.9077 54.0481 55.1494 53.4653 55.15 52.8574L54.85 52.8571ZM54.85 31.9101V52.8573H55.15V31.9101H54.85ZM54.2657 30.5016C54.6393 30.8753 54.8495 31.3819 54.85 31.9103L55.15 31.91C55.1494 31.3021 54.9077 30.7193 54.4778 30.2895L54.2657 30.5016ZM52.857 29.9173C53.3854 29.9178 53.892 30.128 54.2657 30.5016L54.4778 30.2895C54.048 29.8596 53.4652 29.6179 52.8573 29.6173L52.857 29.9173ZM53.4681 53.4682C53.6301 53.3062 53.7212 53.0865 53.7214 52.8574L53.4214 52.8571C53.4213 53.0068 53.3618 53.1503 53.256 53.2561L53.4681 53.4682ZM52.8573 53.7216C53.0864 53.7213 53.3061 53.6302 53.4681 53.4682L53.256 53.2561C53.1501 53.3619 53.0067 53.4214 52.857 53.4216L52.8573 53.7216ZM37.8572 53.7216H52.8572V53.4216H37.8572V53.7216ZM37.2462 53.4682C37.4082 53.6302 37.6279 53.7213 37.857 53.7216L37.8573 53.4216C37.7077 53.4214 37.5642 53.3619 37.4584 53.2561L37.2462 53.4682ZM36.9929 52.8574C36.9931 53.0865 37.0842 53.3062 37.2462 53.4682L37.4584 53.2561C37.3525 53.1503 37.293 53.0068 37.2929 52.8571L36.9929 52.8574ZM36.9929 31.9101V52.8573H37.2929V31.9101H36.9929ZM37.2462 31.2992C37.0842 31.4612 36.9931 31.6809 36.9929 31.91L37.2929 31.9103C37.293 31.7606 37.3525 31.6172 37.4584 31.5113L37.2462 31.2992ZM37.857 31.0459C37.6279 31.0461 37.4082 31.1372 37.2462 31.2992L37.4584 31.5113C37.5642 31.4055 37.7077 31.346 37.8573 31.3459L37.857 31.0459ZM52.8572 31.0459H37.8572V31.3459H52.8572V31.0459ZM53.4681 31.2992C53.3061 31.1372 53.0864 31.0461 52.8573 31.0459L52.857 31.3459C53.0067 31.346 53.1501 31.4055 53.256 31.5113L53.4681 31.2992ZM53.7214 31.91C53.7212 31.6809 53.6301 31.4612 53.4681 31.2992L53.256 31.5113C53.3618 31.6172 53.4213 31.7606 53.4214 31.9103L53.7214 31.91ZM53.7214 52.8573V31.9101H53.4214V52.8573H53.7214ZM51.9044 31.9929H38.8101V32.2929H51.9044V31.9929ZM52.5155 32.2461C52.3534 32.084 52.1336 31.9929 51.9044 31.9929V32.2929C52.054 32.2929 52.1975 32.3524 52.3034 32.4582L52.5155 32.2461ZM52.7686 32.8572C52.7686 32.628 52.6776 32.4082 52.5155 32.2461L52.3034 32.4582C52.4092 32.564 52.4686 32.7076 52.4686 32.8572H52.7686ZM52.7686 36.4286V32.8572H52.4686V36.4286H52.7686ZM52.5155 37.0398C52.6776 36.8777 52.7686 36.6579 52.7686 36.4286H52.4686C52.4686 36.5783 52.4092 36.7218 52.3034 36.8277L52.5155 37.0398ZM51.9044 37.2929C52.1336 37.2929 52.3534 37.2019 52.5155 37.0398L52.3034 36.8277C52.1975 36.9335 52.054 36.9929 51.9044 36.9929V37.2929ZM38.8101 37.2929H51.9044V36.9929H38.8101V37.2929ZM38.1989 37.0398C38.361 37.2019 38.5808 37.2929 38.8101 37.2929V36.9929C38.6604 36.9929 38.5169 36.9335 38.4111 36.8277L38.1989 37.0398ZM37.9458 36.4286C37.9458 36.6579 38.0368 36.8777 38.1989 37.0398L38.4111 36.8277C38.3052 36.7218 38.2458 36.5783 38.2458 36.4286H37.9458ZM37.9458 32.8572V36.4286H38.2458V32.8572H37.9458ZM38.1989 32.2461C38.0368 32.4082 37.9458 32.628 37.9458 32.8572H38.2458C38.2458 32.7076 38.3052 32.564 38.4111 32.4582L38.1989 32.2461ZM38.8101 31.9929C38.5808 31.9929 38.361 32.084 38.1989 32.2461L38.4111 32.4582C38.5169 32.3524 38.6604 32.2929 38.8101 32.2929V31.9929ZM51.1901 35.5644H39.5244V35.8644H51.1901V35.5644ZM51.0401 33.5715V35.7144H51.3401V33.5715H51.0401ZM39.5244 33.7215H51.1901V33.4215H39.5244V33.7215ZM39.6744 35.7144V33.5715H39.3744V35.7144H39.6744ZM40.4758 37.9458H39.5244V38.2458H40.4758V37.9458ZM41.5916 38.4086C41.2957 38.1126 40.8944 37.9462 40.4759 37.9458L40.4756 38.2458C40.8147 38.2461 41.1397 38.381 41.3795 38.6207L41.5916 38.4086ZM42.0544 39.5242C42.0539 39.1057 41.8875 38.7045 41.5916 38.4086L41.3795 38.6207C41.6192 38.8604 41.754 39.1855 41.7544 39.5245L42.0544 39.5242ZM42.0544 40.4758V39.5244H41.7544V40.4758H42.0544ZM41.5916 41.5916C41.8875 41.2957 42.0539 40.8944 42.0544 40.4759L41.7544 40.4756C41.754 40.8147 41.6192 41.1397 41.3795 41.3795L41.5916 41.5916ZM40.4759 42.0544C40.8944 42.0539 41.2957 41.8875 41.5916 41.5916L41.3795 41.3795C41.1397 41.6192 40.8147 41.754 40.4756 41.7544L40.4759 42.0544ZM39.5244 42.0544H40.4758V41.7544H39.5244V42.0544ZM38.4086 41.5916C38.7045 41.8875 39.1057 42.0539 39.5242 42.0544L39.5245 41.7544C39.1855 41.754 38.8604 41.6192 38.6207 41.3795L38.4086 41.5916ZM37.9458 40.4759C37.9462 40.8944 38.1126 41.2957 38.4086 41.5916L38.6207 41.3795C38.381 41.1397 38.2461 40.8147 38.2458 40.4756L37.9458 40.4759ZM37.9458 39.5244V40.4758H38.2458V39.5244H37.9458ZM38.4086 38.4086C38.1126 38.7045 37.9462 39.1057 37.9458 39.5242L38.2458 39.5245C38.2461 39.1855 38.381 38.8604 38.6207 38.6207L38.4086 38.4086ZM39.5242 37.9458C39.1057 37.9462 38.7045 38.1126 38.4086 38.4086L38.6207 38.6207C38.8604 38.381 39.1855 38.2461 39.5245 38.2458L39.5242 37.9458ZM39.6744 40.4758V39.5244H39.3744V40.4758H39.6744ZM40.4772 40.3258H39.5244V40.6258H40.4772V40.3258ZM40.3258 39.5246L40.3272 40.476L40.6272 40.4756L40.6258 39.5241L40.3258 39.5246ZM39.5244 39.6744H40.4758V39.3744H39.5244V39.6744ZM40.4758 43.3029H39.5244V43.6029H40.4758V43.3029ZM41.5916 43.7657C41.2957 43.4698 40.8944 43.3034 40.4759 43.3029L40.4756 43.6029C40.8147 43.6033 41.1397 43.7381 41.3795 43.9778L41.5916 43.7657ZM42.0544 44.8814C42.0539 44.4629 41.8875 44.0616 41.5916 43.7657L41.3795 43.9778C41.6192 44.2176 41.754 44.5426 41.7544 44.8817L42.0544 44.8814ZM42.0544 45.8329V44.8815H41.7544V45.8329H42.0544ZM41.5916 46.9487C41.8875 46.6528 42.0539 46.2516 42.0544 45.8331L41.7544 45.8328C41.754 46.1718 41.6192 46.4969 41.3795 46.7366L41.5916 46.9487ZM40.4759 47.4115C40.8944 47.4111 41.2957 47.2447 41.5916 46.9487L41.3795 46.7366C41.1397 46.9763 40.8147 47.1112 40.4756 47.1115L40.4759 47.4115ZM39.5244 47.4115H40.4758V47.1115H39.5244V47.4115ZM38.4086 46.9487C38.7045 47.2447 39.1057 47.4111 39.5242 47.4115L39.5245 47.1115C39.1855 47.1112 38.8604 46.9763 38.6207 46.7366L38.4086 46.9487ZM37.9458 45.8331C37.9462 46.2516 38.1126 46.6528 38.4086 46.9487L38.6207 46.7366C38.381 46.4969 38.2461 46.1718 38.2458 45.8328L37.9458 45.8331ZM37.9458 44.8815V45.8329H38.2458V44.8815H37.9458ZM38.4086 43.7657C38.1126 44.0616 37.9462 44.4629 37.9458 44.8814L38.2458 44.8817C38.2461 44.5426 38.381 44.2176 38.6207 43.9778L38.4086 43.7657ZM39.5242 43.3029C39.1057 43.3034 38.7045 43.4698 38.4086 43.7657L38.6207 43.9778C38.8604 43.7381 39.1855 43.6033 39.5245 43.6029L39.5242 43.3029ZM39.6744 45.8329V44.8815H39.3744V45.8329H39.6744ZM40.4772 45.6829H39.5244V45.9829H40.4772V45.6829ZM40.3258 44.8817L40.3272 45.8332L40.6272 45.8327L40.6258 44.8813L40.3258 44.8817ZM39.5244 45.0315H40.4758V44.7315H39.5244V45.0315ZM40.4758 48.6601H39.5244V48.9601H40.4758V48.6601ZM41.5916 49.1228C41.2957 48.8269 40.8944 48.6605 40.4759 48.6601L40.4756 48.9601C40.8147 48.9604 41.1397 49.0952 41.3795 49.335L41.5916 49.1228ZM42.0544 50.2385C42.0539 49.82 41.8875 49.4188 41.5916 49.1228L41.3795 49.335C41.6192 49.5747 41.754 49.8998 41.7544 50.2388L42.0544 50.2385ZM42.0544 51.1901V50.2386H41.7544V51.1901H42.0544ZM41.5916 52.3059C41.8875 52.01 42.0539 51.6087 42.0544 51.1902L41.7544 51.1899C41.754 51.529 41.6192 51.854 41.3795 52.0937L41.5916 52.3059ZM40.4759 52.7687C40.8944 52.7682 41.2957 52.6018 41.5916 52.3059L41.3795 52.0937C41.1397 52.3335 40.8147 52.4683 40.4756 52.4686L40.4759 52.7687ZM39.5244 52.7687H40.4758V52.4686H39.5244V52.7687ZM38.4086 52.3059C38.7045 52.6018 39.1057 52.7682 39.5242 52.7687L39.5245 52.4686C39.1855 52.4683 38.8604 52.3335 38.6207 52.0937L38.4086 52.3059ZM37.9458 51.1902C37.9462 51.6087 38.1126 52.01 38.4086 52.3059L38.6207 52.0937C38.381 51.854 38.2461 51.529 38.2458 51.1899L37.9458 51.1902ZM37.9458 50.2386V51.1901H38.2458V50.2386H37.9458ZM38.4086 49.1228C38.1126 49.4188 37.9462 49.82 37.9458 50.2385L38.2458 50.2388C38.2461 49.8998 38.381 49.5747 38.6207 49.335L38.4086 49.1228ZM39.5242 48.6601C39.1057 48.6605 38.7045 48.8269 38.4086 49.1228L38.6207 49.335C38.8604 49.0952 39.1855 48.9604 39.5245 48.9601L39.5242 48.6601ZM39.6744 51.1901V50.2386H39.3744V51.1901H39.6744ZM40.4772 51.0401H39.5244V51.3401H40.4772V51.0401ZM40.3258 50.2389L40.3272 51.1903L40.6272 51.1898L40.6258 50.2384L40.3258 50.2389ZM39.5244 50.3886H40.4758V50.0886H39.5244V50.3886ZM45.8329 37.9458H44.8815V38.2458H45.8329V37.9458ZM46.9487 38.4086C46.6528 38.1126 46.2516 37.9462 45.8331 37.9458L45.8328 38.2458C46.1718 38.2461 46.4969 38.381 46.7366 38.6207L46.9487 38.4086ZM47.4115 39.5242C47.4111 39.1057 47.2446 38.7045 46.9487 38.4086L46.7366 38.6207C46.9763 38.8604 47.1112 39.1855 47.1115 39.5245L47.4115 39.5242ZM47.4115 40.4758V39.5244H47.1115V40.4758H47.4115ZM46.9487 41.5916C47.2446 41.2957 47.4111 40.8944 47.4115 40.4759L47.1115 40.4756C47.1112 40.8147 46.9763 41.1397 46.7366 41.3795L46.9487 41.5916ZM45.8331 42.0544C46.2516 42.0539 46.6528 41.8875 46.9487 41.5916L46.7366 41.3795C46.4969 41.6192 46.1718 41.754 45.8328 41.7544L45.8331 42.0544ZM44.8815 42.0544H45.8329V41.7544H44.8815V42.0544ZM43.7657 41.5916C44.0616 41.8875 44.4629 42.0539 44.8813 42.0544L44.8816 41.7544C44.5426 41.754 44.2176 41.6192 43.9778 41.3795L43.7657 41.5916ZM43.3029 40.4759C43.3033 40.8944 43.4698 41.2957 43.7657 41.5916L43.9778 41.3795C43.7381 41.1397 43.6033 40.8147 43.6029 40.4756L43.3029 40.4759ZM43.3029 39.5244V40.4758H43.6029V39.5244H43.3029ZM43.7657 38.4086C43.4698 38.7045 43.3033 39.1057 43.3029 39.5242L43.6029 39.5245C43.6033 39.1855 43.7381 38.8604 43.9778 38.6207L43.7657 38.4086ZM44.8813 37.9458C44.4629 37.9462 44.0616 38.1126 43.7657 38.4086L43.9778 38.6207C44.2176 38.381 44.5426 38.2461 44.8816 38.2458L44.8813 37.9458ZM45.0315 40.4758V39.5244H44.7315V40.4758H45.0315ZM45.8344 40.3258H44.8815V40.6258H45.8344V40.3258ZM45.6829 39.5246L45.6844 40.476L45.9844 40.4756L45.9829 39.5241L45.6829 39.5246ZM44.8815 39.6744H45.8329V39.3744H44.8815V39.6744ZM45.8329 43.3029H44.8815V43.6029H45.8329V43.3029ZM46.9487 43.7657C46.6528 43.4698 46.2516 43.3034 45.8331 43.3029L45.8328 43.6029C46.1718 43.6033 46.4969 43.7381 46.7366 43.9778L46.9487 43.7657ZM47.4115 44.8814C47.4111 44.4629 47.2446 44.0616 46.9487 43.7657L46.7366 43.9778C46.9763 44.2176 47.1112 44.5426 47.1115 44.8817L47.4115 44.8814ZM47.4115 45.8329V44.8815H47.1115V45.8329H47.4115ZM46.9487 46.9487C47.2446 46.6528 47.4111 46.2516 47.4115 45.8331L47.1115 45.8328C47.1112 46.1718 46.9763 46.4969 46.7366 46.7366L46.9487 46.9487ZM45.8331 47.4115C46.2516 47.4111 46.6528 47.2447 46.9487 46.9487L46.7366 46.7366C46.4969 46.9763 46.1718 47.1112 45.8328 47.1115L45.8331 47.4115ZM44.8815 47.4115H45.8329V47.1115H44.8815V47.4115ZM43.7657 46.9487C44.0616 47.2447 44.4629 47.4111 44.8813 47.4115L44.8816 47.1115C44.5426 47.1112 44.2176 46.9763 43.9778 46.7366L43.7657 46.9487ZM43.3029 45.8331C43.3033 46.2516 43.4698 46.6528 43.7657 46.9487L43.9778 46.7366C43.7381 46.4969 43.6033 46.1718 43.6029 45.8328L43.3029 45.8331ZM43.3029 44.8815V45.8329H43.6029V44.8815H43.3029ZM43.7657 43.7657C43.4698 44.0616 43.3033 44.4629 43.3029 44.8814L43.6029 44.8817C43.6033 44.5426 43.7381 44.2176 43.9778 43.9778L43.7657 43.7657ZM44.8813 43.3029C44.4629 43.3034 44.0616 43.4698 43.7657 43.7657L43.9778 43.9778C44.2176 43.7381 44.5426 43.6033 44.8816 43.6029L44.8813 43.3029ZM45.0315 45.8329V44.8815H44.7315V45.8329H45.0315ZM45.8344 45.6829H44.8815V45.9829H45.8344V45.6829ZM45.6829 44.8817L45.6844 45.8332L45.9844 45.8327L45.9829 44.8813L45.6829 44.8817ZM44.8815 45.0315H45.8329V44.7315H44.8815V45.0315ZM45.8329 48.6601H44.8815V48.9601H45.8329V48.6601ZM46.9487 49.1228C46.6528 48.8269 46.2516 48.6605 45.8331 48.6601L45.8328 48.9601C46.1718 48.9604 46.4969 49.0952 46.7366 49.335L46.9487 49.1228ZM47.4115 50.2385C47.4111 49.82 47.2446 49.4188 46.9487 49.1228L46.7366 49.335C46.9763 49.5747 47.1112 49.8998 47.1115 50.2388L47.4115 50.2385ZM47.4115 51.1901V50.2386H47.1115V51.1901H47.4115ZM46.9487 52.3059C47.2446 52.01 47.4111 51.6087 47.4115 51.1902L47.1115 51.1899C47.1112 51.529 46.9763 51.854 46.7366 52.0937L46.9487 52.3059ZM45.8331 52.7687C46.2516 52.7682 46.6528 52.6018 46.9487 52.3059L46.7366 52.0937C46.4969 52.3335 46.1718 52.4683 45.8328 52.4686L45.8331 52.7687ZM44.8815 52.7687H45.8329V52.4686H44.8815V52.7687ZM43.7657 52.3059C44.0616 52.6018 44.4629 52.7682 44.8813 52.7687L44.8816 52.4686C44.5426 52.4683 44.2176 52.3335 43.9778 52.0937L43.7657 52.3059ZM43.3029 51.1902C43.3033 51.6087 43.4698 52.01 43.7657 52.3059L43.9778 52.0937C43.7381 51.854 43.6033 51.529 43.6029 51.1899L43.3029 51.1902ZM43.3029 50.2386V51.1901H43.6029V50.2386H43.3029ZM43.7657 49.1228C43.4698 49.4188 43.3033 49.82 43.3029 50.2385L43.6029 50.2388C43.6033 49.8998 43.7381 49.5747 43.9778 49.335L43.7657 49.1228ZM44.8813 48.6601C44.4629 48.6605 44.0616 48.8269 43.7657 49.1228L43.9778 49.335C44.2176 49.0952 44.5426 48.9604 44.8816 48.9601L44.8813 48.6601ZM45.0315 51.1901V50.2386H44.7315V51.1901H45.0315ZM45.8344 51.0401H44.8815V51.3401H45.8344V51.0401ZM45.6829 50.2389L45.6844 51.1903L45.9844 51.1898L45.9829 50.2384L45.6829 50.2389ZM44.8815 50.3886H45.8329V50.0886H44.8815V50.3886ZM51.1901 37.9458H50.2386V38.2458H51.1901V37.9458ZM52.3059 38.4086C52.0099 38.1126 51.6087 37.9462 51.1902 37.9458L51.1899 38.2458C51.529 38.2461 51.854 38.381 52.0937 38.6207L52.3059 38.4086ZM52.7686 39.5242C52.7682 39.1057 52.6018 38.7045 52.3059 38.4086L52.0937 38.6207C52.3335 38.8604 52.4683 39.1855 52.4686 39.5245L52.7686 39.5242ZM52.7686 40.4758V39.5244H52.4686V40.4758H52.7686ZM52.3059 41.5916C52.6018 41.2957 52.7682 40.8944 52.7686 40.4759L52.4686 40.4756C52.4683 40.8147 52.3335 41.1397 52.0937 41.3795L52.3059 41.5916ZM51.1902 42.0544C51.6087 42.0539 52.0099 41.8875 52.3059 41.5916L52.0937 41.3795C51.854 41.6192 51.529 41.754 51.1899 41.7544L51.1902 42.0544ZM50.2386 42.0544H51.1901V41.7544H50.2386V42.0544ZM49.1228 41.5916C49.4188 41.8875 49.82 42.0539 50.2385 42.0544L50.2388 41.7544C49.8998 41.754 49.5747 41.6192 49.335 41.3795L49.1228 41.5916ZM48.6601 40.4759C48.6605 40.8944 48.8269 41.2957 49.1228 41.5916L49.335 41.3795C49.0952 41.1397 48.9604 40.8147 48.9601 40.4756L48.6601 40.4759ZM48.6601 39.5244V40.4758H48.9601V39.5244H48.6601ZM49.1228 38.4086C48.8269 38.7045 48.6605 39.1057 48.6601 39.5242L48.9601 39.5245C48.9604 39.1855 49.0952 38.8604 49.335 38.6207L49.1228 38.4086ZM50.2385 37.9458C49.82 37.9462 49.4188 38.1126 49.1228 38.4086L49.335 38.6207C49.5747 38.381 49.8998 38.2461 50.2388 38.2458L50.2385 37.9458ZM50.3886 40.4758V39.5244H50.0886V40.4758H50.3886ZM51.1915 40.3258H50.2386V40.6258H51.1915V40.3258ZM51.0401 39.5246L51.0415 40.476L51.3415 40.4756L51.3401 39.5241L51.0401 39.5246ZM50.2386 39.6744H51.1901V39.3744H50.2386V39.6744ZM51.3101 43.3029H50.1186V43.6029H51.3101V43.3029ZM52.3408 43.7308C52.0675 43.4574 51.6969 43.3036 51.3103 43.3029L51.3098 43.6029C51.617 43.6034 51.9115 43.7257 52.1287 43.9429L52.3408 43.7308ZM52.7686 44.7613C52.768 44.3747 52.6142 44.0041 52.3408 43.7308L52.1287 43.9429C52.3459 44.1601 52.4681 44.4546 52.4686 44.7618L52.7686 44.7613ZM52.7686 51.3101V44.7615H52.4686V51.3101H52.7686ZM52.3408 52.3408C52.6142 52.0675 52.768 51.6969 52.7686 51.3103L52.4686 51.3098C52.4681 51.617 52.3459 51.9115 52.1287 52.1287L52.3408 52.3408ZM51.3103 52.7687C51.6969 52.768 52.0675 52.6142 52.3408 52.3408L52.1287 52.1287C51.9115 52.3459 51.617 52.4681 51.3098 52.4686L51.3103 52.7687ZM50.1186 52.7687H51.3101V52.4686H50.1186V52.7687ZM49.0879 52.3408C49.3613 52.6142 49.7318 52.768 50.1184 52.7687L50.1189 52.4686C49.8117 52.4681 49.5172 52.3459 49.3 52.1287L49.0879 52.3408ZM48.6601 51.3103C48.6607 51.6969 48.8145 52.0675 49.0879 52.3408L49.3 52.1287C49.0828 51.9115 48.9606 51.617 48.9601 51.3098L48.6601 51.3103ZM48.6601 44.7615V51.3101H48.9601V44.7615H48.6601ZM49.0879 43.7308C48.8145 44.0041 48.6607 44.3747 48.6601 44.7613L48.9601 44.7617C48.9606 44.4546 49.0828 44.1601 49.3 43.9429L49.0879 43.7308ZM50.1184 43.3029C49.7318 43.3036 49.3613 43.4574 49.0879 43.7308L49.3 43.9429C49.5172 43.7257 49.8117 43.6034 50.1189 43.6029L50.1184 43.3029ZM51.1901 51.0401H50.2386V51.3401H51.1901V51.0401ZM51.0401 44.8815V51.1901H51.3401V44.8815H51.0401ZM50.2386 45.0315H51.1901V44.7315H50.2386V45.0315ZM50.3886 51.1901V44.8815H50.0886V51.1901H50.3886Z" fill="white"/>
</svg>
