<svg width="21" height="20" viewBox="0 0 21 20" fill="none" xmlns="http://www.w3.org/2000/svg">
<path fill-rule="evenodd" clip-rule="evenodd" d="M20.487 1.43978C20.5193 1.21083 20.4911 0.976893 20.4054 0.763869C20.3198 0.550844 20.18 0.367046 20.0017 0.232827C19.8234 0.0986078 19.6134 0.0192048 19.395 0.00341118C19.1766 -0.0123825 18.9584 0.0360493 18.7644 0.143343L1.13686 9.93054C0.931202 10.0438 0.761526 10.2184 0.648917 10.4327C0.536309 10.647 0.485731 10.8916 0.503468 11.1361C0.521205 11.3806 0.606474 11.6142 0.748683 11.8078C0.890891 12.0015 1.08377 12.1467 1.30335 12.2254L6.78081 14.2113L17.0121 4.09855L8.73219 14.9186L16.7275 17.8174C16.8917 17.8766 17.0661 17.897 17.2386 17.8772C17.411 17.8574 17.5773 17.7978 17.7257 17.7028C17.874 17.6077 18.0008 17.4793 18.0972 17.3268C18.1936 17.1743 18.2572 17.0013 18.2836 16.8199L20.487 1.43978ZM7.55467 15.5314V18.7479C7.55477 18.9894 7.62084 19.2257 7.74495 19.4284C7.86905 19.6311 8.0459 19.7916 8.25421 19.8905C8.46253 19.9894 8.69343 20.0226 8.91915 19.986C9.14486 19.9494 9.35578 19.8447 9.52651 19.6843L12.1662 17.2036L7.55467 15.5314Z" fill="white"/>
</svg>
