<svg width="60" height="60" viewBox="0 0 60 60" fill="none" xmlns="http://www.w3.org/2000/svg">
<rect width="60" height="60" rx="30" fill="#FC0012" fill-opacity="0.15"/>
<path fill-rule="evenodd" clip-rule="evenodd" d="M32.4703 19.9664H35.4163C40.7007 19.9664 45 24.2749 45 29.5706C45 34.8664 40.7008 39.1748 35.4163 39.1748H34.7034V45.0001L28.4577 39.1748H27.0255C21.7409 39.1748 17.4417 34.8664 17.4417 29.5706C17.4417 27.9907 17.8269 26.4479 18.5601 25.0661L16.3434 22.8447C15.4771 21.9765 15 20.8222 15 19.5944C15 18.3667 15.4771 17.2123 16.3434 16.3442C18.1318 14.552 21.0417 14.5519 22.8301 16.3441L23.7443 17.2603L24.6586 16.3441C26.4469 14.552 29.3567 14.552 31.1452 16.3441C32.1336 17.3347 32.5746 18.6686 32.4703 19.9664ZM19.5867 16.7622C18.8626 16.7622 18.1387 17.0384 17.5874 17.5908C16.4851 18.6956 16.4851 20.4932 17.5874 21.598L23.7443 27.768L29.9011 21.598C30.4351 21.0628 30.7292 20.3513 30.7292 19.5944C30.7292 18.8375 30.4351 18.126 29.9011 17.5909C28.7986 16.4861 27.0049 16.4861 25.9025 17.5908L23.7442 19.7537L21.586 17.5908C21.0349 17.0385 20.3106 16.7622 19.5867 16.7622ZM32.9441 37.4118H35.4163C39.7306 37.4118 43.2408 33.8942 43.2408 29.5706C43.2408 25.2469 39.7307 21.7294 35.4163 21.7294H31.9642C31.7544 22.1309 31.4815 22.5077 31.1452 22.8447L23.7443 30.2613L19.8749 26.3837C19.4321 27.3809 19.201 28.4644 19.201 29.5706C19.201 33.8942 22.711 37.4118 27.0255 37.4118H29.1497L32.9441 40.9508V37.4118ZM29.4225 29.0691H26.4225V32.0691H29.4225V29.0691ZM31.4225 29.0691H34.4225V32.0691H31.4225V29.0691ZM39.4225 29.0691H36.4225V32.0691H39.4225V29.0691Z" fill="#FC0012"/>
</svg>
