<svg width="60" height="60" viewBox="0 0 60 60" fill="none" xmlns="http://www.w3.org/2000/svg">
<rect width="60" height="60" rx="30" fill="#FC0012" fill-opacity="0.15"/>
<path fill-rule="evenodd" clip-rule="evenodd" d="M21.1692 15H38.8308C42.2326 15 45 17.9457 45 21.5667C45 25.1876 42.2326 28.1335 38.8308 28.1335H30.9346V30.1405L35.6551 30.7665C36.9724 30.9412 37.9658 32.1385 37.9658 33.5516V44.0644C37.9658 44.5811 37.5723 45 37.0869 45H26.5401C26.0547 45 25.6611 44.5811 25.6611 44.0644V40.7585L21.8207 37.3284C20.6802 36.3097 20.6115 34.5354 21.6604 33.419C22.6612 32.3535 24.3577 32.2747 25.4419 33.2432L25.6612 33.4391V28.1336H21.1692C17.7675 28.1336 15 25.1878 15 21.5668C15 17.9459 17.7675 15 21.1692 15ZM27.419 41.2578V43.1289H36.208V41.2578H27.419ZM36.2081 33.5516C36.2081 33.0806 35.8769 32.6815 35.4378 32.6232L29.9471 31.8951C29.5071 31.8367 29.1768 31.4387 29.1768 30.9667V23.4824C29.1768 22.9665 28.7826 22.5468 28.2979 22.5468C27.8133 22.5468 27.419 22.9665 27.419 23.4824V35.4453C27.419 36.2393 26.5456 36.6714 25.9751 36.162L24.312 34.6765C23.9218 34.328 23.2635 34.3586 22.9033 34.7419C22.5826 35.0834 22.6036 35.5851 22.9506 35.895L26.8599 39.3867H36.2081V33.5516ZM30.9346 26.2625H38.8308C41.2633 26.2625 43.2422 24.1561 43.2422 21.5668C43.2422 18.9776 41.2633 16.8711 38.8308 16.8711H21.1692C18.7368 16.8711 16.7578 18.9776 16.7578 21.5668C16.7578 24.156 18.7368 26.2625 21.1692 26.2625H25.6611V23.4824C25.6611 21.9347 26.844 20.6757 28.2978 20.6757C29.7517 20.6757 30.9346 21.9347 30.9346 23.4824V26.2625ZM35.2675 22.0968L38.1617 19.0161C38.5049 18.6507 39.0614 18.6507 39.4046 19.0161C39.7478 19.3815 39.7478 19.9738 39.4046 20.3392L35.8889 24.0814C35.5457 24.4468 34.9892 24.4468 34.646 24.0814L32.8882 22.2103C32.545 21.8449 32.545 21.2526 32.8882 20.8872C33.2315 20.5219 33.788 20.5219 34.1312 20.8872L35.2675 22.0968Z" fill="#FC0012"/>
</svg>
