<svg width="60" height="60" viewBox="0 0 60 60" fill="none" xmlns="http://www.w3.org/2000/svg">
<rect width="60" height="60" rx="30" fill="#FC0012" fill-opacity="0.15"/>
<path fill-rule="evenodd" clip-rule="evenodd" d="M35.7605 34.8246H40.5201L45 45H15L19.4798 34.8246H24.2394C21.461 31.4161 20.0524 28.3428 20.0524 25.6818V25.1175C20.0524 19.5387 24.5149 15 30 15C35.4851 15 39.9476 19.5387 39.9476 25.1174V25.6818C39.9476 28.3427 38.5389 31.4161 35.7605 34.8246ZM22.3525 25.1175V25.6818C22.3525 27.8857 23.7765 30.7222 26.4704 33.8846C27.8292 35.4797 29.1945 36.7809 29.9998 37.5095C30.8106 36.7753 32.1892 35.4613 33.5519 33.8584C36.2312 30.7066 37.6475 27.8791 37.6475 25.6818V25.1175C37.6475 20.8285 34.2168 17.3391 30 17.3391C25.7832 17.3391 22.3525 20.8285 22.3525 25.1175ZM26.3152 37.1637H20.97L18.5498 42.6608H41.4502L39.03 37.1637H33.6847C32.0874 38.8276 30.7965 39.9018 30.7259 39.9602L30 40.5613L29.274 39.9602C29.2034 39.9018 27.9125 38.8276 26.3152 37.1637ZM34.3098 25.1171C34.3098 27.7288 32.2205 29.8538 29.6524 29.8538C27.0842 29.8538 24.9949 27.7288 24.9949 25.117C24.9949 22.5051 27.0842 20.3801 29.6524 20.3801C32.2205 20.3801 34.3098 22.5052 34.3098 25.1171ZM32.0099 25.117C32.0099 23.7949 30.9523 22.7193 29.6524 22.7193C28.3524 22.7193 27.2949 23.7949 27.2949 25.117C27.2949 26.439 28.3524 27.5146 29.6524 27.5146C30.9523 27.5146 32.0099 26.439 32.0099 25.117Z" fill="#FC0012"/>
</svg>
