<svg width="44" height="44" viewBox="0 0 44 44" fill="none" xmlns="http://www.w3.org/2000/svg">
<rect width="44" height="44" rx="22" fill="#FC0012"/>
<path d="M31.4755 26.678L28.6786 23.8869C27.6797 22.8901 25.9816 23.2889 25.582 24.5847C25.2823 25.4819 24.2834 25.9803 23.3844 25.7809C21.3866 25.2825 18.6896 22.6908 18.1901 20.5975C17.8904 19.7003 18.4898 18.7035 19.3888 18.4045C20.6874 18.0058 21.0869 16.3112 20.088 15.3144L17.2911 12.5233C16.492 11.8256 15.2933 11.8256 14.5941 12.5233L12.6961 14.4173C10.7982 16.4109 12.8959 21.6939 17.5908 26.3789C22.2856 31.0639 27.5798 33.2569 29.5776 31.2633L31.4755 29.3694C32.1748 28.5719 32.1748 27.3757 31.4755 26.678Z" fill="white"/>
</svg>
