<svg width="150" height="22" viewBox="0 0 150 22" fill="none" xmlns="http://www.w3.org/2000/svg">
<g clip-path="url(#clip0_34_1083)">
<path fill-rule="evenodd" clip-rule="evenodd" d="M11.065 5.60487e-05C10.388 -0.00531505 9.83357 0.37599 9.4301 0.865662C9.02662 1.35533 8.72197 1.96944 8.43236 2.60336C7.8531 3.87124 7.28982 5.2156 6.6645 5.68143C6.03922 6.1473 4.65098 6.26374 3.30976 6.42509C2.63914 6.50574 1.97889 6.60805 1.39949 6.84923C0.820104 7.09042 0.300053 7.5143 0.0916113 8.1658C-0.116787 8.81733 0.0539278 9.46775 0.375463 10.0177C0.696998 10.5676 1.16463 11.0612 1.65413 11.5445C2.63308 12.5111 3.68126 13.4712 3.91819 14.2513C4.15512 15.0313 3.82766 16.454 3.56104 17.83C3.42771 18.518 3.31826 19.1997 3.35878 19.8398C3.3993 20.4797 3.61724 21.1167 4.15594 21.531C4.69464 21.9454 5.36538 21.9801 5.9733 21.8297C6.58123 21.6794 7.17626 21.3677 7.76897 21.0318C8.95435 20.3599 10.1631 19.6224 10.921 19.6284C11.6789 19.6345 12.8771 20.3911 14.0525 21.0817C14.6402 21.427 15.2305 21.7481 15.8361 21.908C16.4417 22.068 17.1129 22.0439 17.6578 21.638C18.2027 21.232 18.4301 20.5984 18.48 19.9591C18.5298 19.3198 18.4304 18.6365 18.3071 17.9464C18.0606 16.5664 17.754 15.1384 18.0022 14.3625C18.2505 13.5866 19.3124 12.6432 20.3054 11.6922C20.8019 11.2167 21.2768 10.7306 21.6064 10.1857C21.936 9.64083 22.1161 8.99294 21.9172 8.33836C21.7184 7.68377 21.2049 7.25194 20.6292 7.0016C20.0535 6.75135 19.3948 6.63856 18.7255 6.54729C17.3868 6.36467 16.0005 6.2264 15.3817 5.75044C14.7629 5.27443 14.2194 3.92121 13.6588 2.64435C13.3785 2.00588 13.0828 1.38722 12.6866 0.891228C12.2903 0.395326 11.742 0.00551308 11.065 9.90175e-05V5.60487e-05Z" fill="#FF8029"/>
<path fill-rule="evenodd" clip-rule="evenodd" d="M11.0648 5.13232e-05C10.8995 -0.00121472 10.7349 0.0209483 10.5758 0.0658794C11.0459 0.196676 11.4382 0.512196 11.7411 0.891266C12.1372 1.38721 12.4329 2.00588 12.7132 2.6443C13.2739 3.92121 13.8174 5.27442 14.4362 5.75043C15.0549 6.22639 16.4413 6.36467 17.7799 6.54724C18.4493 6.63855 19.1079 6.75134 19.6836 7.00164C20.2593 7.25193 20.7729 7.68377 20.9717 8.3384C21.1705 8.99294 20.9904 9.64078 20.6608 10.1857C20.3313 10.7305 19.8564 11.2167 19.3599 11.6921C18.3669 12.6431 17.3049 13.5865 17.0567 14.3624C16.8084 15.1384 17.1151 16.5663 17.3616 17.9464C17.4848 18.6364 17.5844 19.3197 17.5345 19.9591C17.4846 20.5984 17.2572 21.232 16.7123 21.638C16.4984 21.7972 16.265 21.8961 16.0238 21.9497C16.5777 22.0577 17.1684 22.0024 17.6576 21.638C18.2025 21.232 18.4299 20.5984 18.4798 19.959C18.5296 19.3197 18.4301 18.6365 18.3069 17.9464C18.0604 16.5664 17.7537 15.1384 18.002 14.3624C18.2502 13.5865 19.3122 12.6431 20.3052 11.6922C20.8017 11.2167 21.2766 10.7306 21.6061 10.1857C21.9358 9.64082 22.1158 8.99289 21.917 8.33835C21.7182 7.68377 21.2046 7.25193 20.6289 7.00159C20.0533 6.75134 19.3946 6.63855 18.7253 6.54724C17.3866 6.36467 16.0003 6.22639 15.3815 5.75043C14.7627 5.27442 14.2192 3.92121 13.6586 2.6443C13.3782 2.00588 13.0826 1.38721 12.6864 0.891266C12.2901 0.395278 11.7418 0.00546539 11.0648 9.4292e-05V5.13232e-05Z" fill="#FF6B07"/>
</g>
<g clip-path="url(#clip1_34_1083)">
<path fill-rule="evenodd" clip-rule="evenodd" d="M43.065 5.60487e-05C42.388 -0.00531505 41.8336 0.37599 41.4301 0.865662C41.0266 1.35533 40.722 1.96944 40.4324 2.60336C39.8531 3.87124 39.2898 5.2156 38.6645 5.68143C38.0392 6.1473 36.651 6.26374 35.3098 6.42509C34.6391 6.50574 33.9789 6.60805 33.3995 6.84923C32.8201 7.09042 32.3001 7.5143 32.0916 8.1658C31.8832 8.81733 32.0539 9.46775 32.3755 10.0177C32.697 10.5676 33.1646 11.0612 33.6541 11.5445C34.6331 12.5111 35.6813 13.4712 35.9182 14.2513C36.1551 15.0313 35.8277 16.454 35.561 17.83C35.4277 18.518 35.3183 19.1997 35.3588 19.8398C35.3993 20.4797 35.6172 21.1167 36.1559 21.531C36.6946 21.9454 37.3654 21.9801 37.9733 21.8297C38.5812 21.6794 39.1763 21.3677 39.769 21.0318C40.9543 20.3599 42.1631 19.6224 42.921 19.6284C43.6789 19.6345 44.8771 20.3911 46.0525 21.0817C46.6402 21.427 47.2305 21.7481 47.8361 21.908C48.4417 22.068 49.1129 22.0439 49.6578 21.638C50.2027 21.232 50.4301 20.5984 50.48 19.9591C50.5298 19.3198 50.4304 18.6365 50.3071 17.9464C50.0606 16.5664 49.754 15.1384 50.0022 14.3625C50.2505 13.5866 51.3124 12.6432 52.3054 11.6922C52.8019 11.2167 53.2768 10.7306 53.6064 10.1857C53.936 9.64083 54.1161 8.99294 53.9172 8.33836C53.7184 7.68377 53.2049 7.25194 52.6292 7.0016C52.0535 6.75135 51.3948 6.63856 50.7255 6.54729C49.3868 6.36467 48.0005 6.2264 47.3817 5.75044C46.7629 5.27443 46.2194 3.92121 45.6588 2.64435C45.3785 2.00588 45.0828 1.38722 44.6866 0.891228C44.2903 0.395326 43.742 0.00551308 43.065 9.90175e-05V5.60487e-05Z" fill="#FF8029"/>
<path fill-rule="evenodd" clip-rule="evenodd" d="M43.0648 5.13232e-05C42.8995 -0.00121472 42.7349 0.0209483 42.5758 0.0658794C43.0459 0.196676 43.4382 0.512196 43.7411 0.891266C44.1372 1.38721 44.4329 2.00588 44.7132 2.6443C45.2739 3.92121 45.8174 5.27442 46.4362 5.75043C47.0549 6.22639 48.4413 6.36467 49.7799 6.54724C50.4493 6.63855 51.1079 6.75134 51.6836 7.00164C52.2593 7.25193 52.7729 7.68377 52.9717 8.3384C53.1705 8.99294 52.9904 9.64078 52.6608 10.1857C52.3313 10.7305 51.8564 11.2167 51.3599 11.6921C50.3669 12.6431 49.3049 13.5865 49.0567 14.3624C48.8084 15.1384 49.1151 16.5663 49.3616 17.9464C49.4848 18.6364 49.5844 19.3197 49.5345 19.9591C49.4846 20.5984 49.2572 21.232 48.7123 21.638C48.4984 21.7972 48.265 21.8961 48.0238 21.9497C48.5777 22.0577 49.1684 22.0024 49.6576 21.638C50.2025 21.232 50.4299 20.5984 50.4798 19.959C50.5296 19.3197 50.4301 18.6365 50.3069 17.9464C50.0604 16.5664 49.7537 15.1384 50.002 14.3624C50.2502 13.5865 51.3122 12.6431 52.3052 11.6922C52.8017 11.2167 53.2766 10.7306 53.6061 10.1857C53.9358 9.64082 54.1158 8.99289 53.917 8.33835C53.7182 7.68377 53.2046 7.25193 52.6289 7.00159C52.0533 6.75134 51.3946 6.63855 50.7253 6.54724C49.3866 6.36467 48.0003 6.22639 47.3815 5.75043C46.7627 5.27442 46.2192 3.92121 45.6586 2.6443C45.3782 2.00588 45.0826 1.38721 44.6864 0.891266C44.2901 0.395278 43.7418 0.00546539 43.0648 9.4292e-05V5.13232e-05Z" fill="#FF6B07"/>
</g>
<g clip-path="url(#clip2_34_1083)">
<path fill-rule="evenodd" clip-rule="evenodd" d="M75.065 5.60487e-05C74.388 -0.00531505 73.8336 0.37599 73.4301 0.865662C73.0266 1.35533 72.722 1.96944 72.4324 2.60336C71.8531 3.87124 71.2898 5.2156 70.6645 5.68143C70.0392 6.1473 68.651 6.26374 67.3098 6.42509C66.6391 6.50574 65.9789 6.60805 65.3995 6.84923C64.8201 7.09042 64.3001 7.5143 64.0916 8.1658C63.8832 8.81733 64.0539 9.46775 64.3755 10.0177C64.697 10.5676 65.1646 11.0612 65.6541 11.5445C66.6331 12.5111 67.6813 13.4712 67.9182 14.2513C68.1551 15.0313 67.8277 16.454 67.561 17.83C67.4277 18.518 67.3183 19.1997 67.3588 19.8398C67.3993 20.4797 67.6172 21.1167 68.1559 21.531C68.6946 21.9454 69.3654 21.9801 69.9733 21.8297C70.5812 21.6794 71.1763 21.3677 71.769 21.0318C72.9543 20.3599 74.1631 19.6224 74.921 19.6284C75.6789 19.6345 76.8771 20.3911 78.0525 21.0817C78.6402 21.427 79.2305 21.7481 79.8361 21.908C80.4417 22.068 81.1129 22.0439 81.6578 21.638C82.2027 21.232 82.4301 20.5984 82.48 19.9591C82.5298 19.3198 82.4304 18.6365 82.3071 17.9464C82.0606 16.5664 81.754 15.1384 82.0022 14.3625C82.2505 13.5866 83.3124 12.6432 84.3054 11.6922C84.8019 11.2167 85.2768 10.7306 85.6064 10.1857C85.936 9.64083 86.1161 8.99294 85.9172 8.33836C85.7184 7.68377 85.2049 7.25194 84.6292 7.0016C84.0535 6.75135 83.3948 6.63856 82.7255 6.54729C81.3868 6.36467 80.0005 6.2264 79.3817 5.75044C78.7629 5.27443 78.2194 3.92121 77.6588 2.64435C77.3785 2.00588 77.0828 1.38722 76.6866 0.891228C76.2903 0.395326 75.742 0.00551308 75.065 9.90175e-05V5.60487e-05Z" fill="#FF8029"/>
<path fill-rule="evenodd" clip-rule="evenodd" d="M75.0648 5.13232e-05C74.8995 -0.00121472 74.7349 0.0209483 74.5758 0.0658794C75.0459 0.196676 75.4382 0.512196 75.7411 0.891266C76.1372 1.38721 76.4329 2.00588 76.7132 2.6443C77.2739 3.92121 77.8174 5.27442 78.4362 5.75043C79.0549 6.22639 80.4413 6.36467 81.7799 6.54724C82.4493 6.63855 83.1079 6.75134 83.6836 7.00164C84.2593 7.25193 84.7729 7.68377 84.9717 8.3384C85.1705 8.99294 84.9904 9.64078 84.6608 10.1857C84.3313 10.7305 83.8564 11.2167 83.3599 11.6921C82.3669 12.6431 81.3049 13.5865 81.0567 14.3624C80.8084 15.1384 81.1151 16.5663 81.3616 17.9464C81.4848 18.6364 81.5844 19.3197 81.5345 19.9591C81.4846 20.5984 81.2572 21.232 80.7123 21.638C80.4984 21.7972 80.265 21.8961 80.0238 21.9497C80.5777 22.0577 81.1684 22.0024 81.6576 21.638C82.2025 21.232 82.4299 20.5984 82.4798 19.959C82.5296 19.3197 82.4301 18.6365 82.3069 17.9464C82.0604 16.5664 81.7537 15.1384 82.002 14.3624C82.2502 13.5865 83.3122 12.6431 84.3052 11.6922C84.8017 11.2167 85.2766 10.7306 85.6061 10.1857C85.9358 9.64082 86.1158 8.99289 85.917 8.33835C85.7182 7.68377 85.2046 7.25193 84.6289 7.00159C84.0533 6.75134 83.3946 6.63855 82.7253 6.54724C81.3866 6.36467 80.0003 6.22639 79.3815 5.75043C78.7627 5.27442 78.2192 3.92121 77.6586 2.6443C77.3782 2.00588 77.0826 1.38721 76.6864 0.891266C76.2901 0.395278 75.7418 0.00546539 75.0648 9.4292e-05V5.13232e-05Z" fill="#FF6B07"/>
</g>
<g clip-path="url(#clip3_34_1083)">
<path fill-rule="evenodd" clip-rule="evenodd" d="M107.065 5.60487e-05C106.388 -0.00531505 105.834 0.37599 105.43 0.865662C105.027 1.35533 104.722 1.96944 104.432 2.60336C103.853 3.87124 103.29 5.2156 102.664 5.68143C102.039 6.1473 100.651 6.26374 99.3098 6.42509C98.6391 6.50574 97.9789 6.60805 97.3995 6.84923C96.8201 7.09042 96.3001 7.5143 96.0916 8.1658C95.8832 8.81733 96.0539 9.46775 96.3755 10.0177C96.697 10.5676 97.1646 11.0612 97.6541 11.5445C98.6331 12.5111 99.6813 13.4712 99.9182 14.2513C100.155 15.0313 99.8277 16.454 99.561 17.83C99.4277 18.518 99.3183 19.1997 99.3588 19.8398C99.3993 20.4797 99.6172 21.1167 100.156 21.531C100.695 21.9454 101.365 21.9801 101.973 21.8297C102.581 21.6794 103.176 21.3677 103.769 21.0318C104.954 20.3599 106.163 19.6224 106.921 19.6284C107.679 19.6345 108.877 20.3911 110.053 21.0817C110.64 21.427 111.23 21.7481 111.836 21.908C112.442 22.068 113.113 22.0439 113.658 21.638C114.203 21.232 114.43 20.5984 114.48 19.9591C114.53 19.3198 114.43 18.6365 114.307 17.9464C114.061 16.5664 113.754 15.1384 114.002 14.3625C114.25 13.5866 115.312 12.6432 116.305 11.6922C116.802 11.2167 117.277 10.7306 117.606 10.1857C117.936 9.64083 118.116 8.99294 117.917 8.33836C117.718 7.68377 117.205 7.25194 116.629 7.0016C116.053 6.75135 115.395 6.63856 114.725 6.54729C113.387 6.36467 112 6.2264 111.382 5.75044C110.763 5.27443 110.219 3.92121 109.659 2.64435C109.378 2.00588 109.083 1.38722 108.687 0.891228C108.29 0.395326 107.742 0.00551308 107.065 9.90175e-05V5.60487e-05Z" fill="#FF8029"/>
<path fill-rule="evenodd" clip-rule="evenodd" d="M107.065 5.13232e-05C106.9 -0.00121472 106.735 0.0209483 106.576 0.0658794C107.046 0.196676 107.438 0.512196 107.741 0.891266C108.137 1.38721 108.433 2.00588 108.713 2.6443C109.274 3.92121 109.817 5.27442 110.436 5.75043C111.055 6.22639 112.441 6.36467 113.78 6.54724C114.449 6.63855 115.108 6.75134 115.684 7.00164C116.259 7.25193 116.773 7.68377 116.972 8.3384C117.171 8.99294 116.99 9.64078 116.661 10.1857C116.331 10.7305 115.856 11.2167 115.36 11.6921C114.367 12.6431 113.305 13.5865 113.057 14.3624C112.808 15.1384 113.115 16.5663 113.362 17.9464C113.485 18.6364 113.584 19.3197 113.534 19.9591C113.485 20.5984 113.257 21.232 112.712 21.638C112.498 21.7972 112.265 21.8961 112.024 21.9497C112.578 22.0577 113.168 22.0024 113.658 21.638C114.203 21.232 114.43 20.5984 114.48 19.959C114.53 19.3197 114.43 18.6365 114.307 17.9464C114.06 16.5664 113.754 15.1384 114.002 14.3624C114.25 13.5865 115.312 12.6431 116.305 11.6922C116.802 11.2167 117.277 10.7306 117.606 10.1857C117.936 9.64082 118.116 8.99289 117.917 8.33835C117.718 7.68377 117.205 7.25193 116.629 7.00159C116.053 6.75134 115.395 6.63855 114.725 6.54724C113.387 6.36467 112 6.22639 111.381 5.75043C110.763 5.27442 110.219 3.92121 109.659 2.6443C109.378 2.00588 109.083 1.38721 108.686 0.891266C108.29 0.395278 107.742 0.00546539 107.065 9.4292e-05V5.13232e-05Z" fill="#FF6B07"/>
</g>
<g clip-path="url(#clip4_34_1083)">
<path fill-rule="evenodd" clip-rule="evenodd" d="M139.065 5.60487e-05C138.388 -0.00531505 137.834 0.37599 137.43 0.865662C137.027 1.35533 136.722 1.96944 136.432 2.60336C135.853 3.87124 135.29 5.2156 134.664 5.68143C134.039 6.1473 132.651 6.26374 131.31 6.42509C130.639 6.50574 129.979 6.60805 129.399 6.84923C128.82 7.09042 128.3 7.5143 128.092 8.1658C127.883 8.81733 128.054 9.46775 128.375 10.0177C128.697 10.5676 129.165 11.0612 129.654 11.5445C130.633 12.5111 131.681 13.4712 131.918 14.2513C132.155 15.0313 131.828 16.454 131.561 17.83C131.428 18.518 131.318 19.1997 131.359 19.8398C131.399 20.4797 131.617 21.1167 132.156 21.531C132.695 21.9454 133.365 21.9801 133.973 21.8297C134.581 21.6794 135.176 21.3677 135.769 21.0318C136.954 20.3599 138.163 19.6224 138.921 19.6284C139.679 19.6345 140.877 20.3911 142.053 21.0817C142.64 21.427 143.23 21.7481 143.836 21.908C144.442 22.068 145.113 22.0439 145.658 21.638C146.203 21.232 146.43 20.5984 146.48 19.9591C146.53 19.3198 146.43 18.6365 146.307 17.9464C146.061 16.5664 145.754 15.1384 146.002 14.3625C146.25 13.5866 147.312 12.6432 148.305 11.6922C148.802 11.2167 149.277 10.7306 149.606 10.1857C149.936 9.64083 150.116 8.99294 149.917 8.33836C149.718 7.68377 149.205 7.25194 148.629 7.0016C148.053 6.75135 147.395 6.63856 146.725 6.54729C145.387 6.36467 144 6.2264 143.382 5.75044C142.763 5.27443 142.219 3.92121 141.659 2.64435C141.378 2.00588 141.083 1.38722 140.687 0.891228C140.29 0.395326 139.742 0.00551308 139.065 9.90175e-05V5.60487e-05Z" fill="#FF8029"/>
<path fill-rule="evenodd" clip-rule="evenodd" d="M139.065 5.13232e-05C138.9 -0.00121472 138.735 0.0209483 138.576 0.0658794C139.046 0.196676 139.438 0.512196 139.741 0.891266C140.137 1.38721 140.433 2.00588 140.713 2.6443C141.274 3.92121 141.817 5.27442 142.436 5.75043C143.055 6.22639 144.441 6.36467 145.78 6.54724C146.449 6.63855 147.108 6.75134 147.684 7.00164C148.259 7.25193 148.773 7.68377 148.972 8.3384C149.171 8.99294 148.99 9.64078 148.661 10.1857C148.331 10.7305 147.856 11.2167 147.36 11.6921C146.367 12.6431 145.305 13.5865 145.057 14.3624C144.808 15.1384 145.115 16.5663 145.362 17.9464C145.485 18.6364 145.584 19.3197 145.534 19.9591C145.485 20.5984 145.257 21.232 144.712 21.638C144.498 21.7972 144.265 21.8961 144.024 21.9497C144.578 22.0577 145.168 22.0024 145.658 21.638C146.203 21.232 146.43 20.5984 146.48 19.959C146.53 19.3197 146.43 18.6365 146.307 17.9464C146.06 16.5664 145.754 15.1384 146.002 14.3624C146.25 13.5865 147.312 12.6431 148.305 11.6922C148.802 11.2167 149.277 10.7306 149.606 10.1857C149.936 9.64082 150.116 8.99289 149.917 8.33835C149.718 7.68377 149.205 7.25193 148.629 7.00159C148.053 6.75134 147.395 6.63855 146.725 6.54724C145.387 6.36467 144 6.22639 143.381 5.75043C142.763 5.27442 142.219 3.92121 141.659 2.6443C141.378 2.00588 141.083 1.38721 140.686 0.891266C140.29 0.395278 139.742 0.00546539 139.065 9.4292e-05V5.13232e-05Z" fill="#FF6B07"/>
</g>
<defs>
<clipPath id="clip0_34_1083">
<rect width="22" height="22" fill="white"/>
</clipPath>
<clipPath id="clip1_34_1083">
<rect width="22" height="22" fill="white" transform="translate(32)"/>
</clipPath>
<clipPath id="clip2_34_1083">
<rect width="22" height="22" fill="white" transform="translate(64)"/>
</clipPath>
<clipPath id="clip3_34_1083">
<rect width="22" height="22" fill="white" transform="translate(96)"/>
</clipPath>
<clipPath id="clip4_34_1083">
<rect width="22" height="22" fill="white" transform="translate(128)"/>
</clipPath>
</defs>
</svg>
