<svg width="113" height="66" viewBox="0 0 113 66" fill="none" xmlns="http://www.w3.org/2000/svg">
<path d="M1.42858 63.3247V65.5911C1.42858 65.862 1.25101 65.9981 0.894522 65.9981C0.551291 65.9981 0.380337 65.862 0.380337 65.5911V59.5848C0.380337 59.3588 0.528761 59.2451 0.826935 59.2451H5.39231C7.40664 59.2451 8.41381 59.7935 8.41381 60.8917V61.6093C8.41381 62.6877 7.40664 63.2269 5.39231 63.2269H3.07053L7.5776 65.2025C7.7724 65.2871 7.86915 65.4127 7.86915 65.5805C7.86915 65.71 7.82144 65.8118 7.72867 65.8858C7.63458 65.9598 7.50338 65.9968 7.33508 65.9968C7.26352 65.9968 7.20388 65.9902 7.15485 65.977C7.10582 65.9638 7.04353 65.9386 6.96535 65.899L1.42858 63.3247ZM1.42858 62.4921H5.42146C6.7162 62.4921 7.36424 62.1987 7.36424 61.6106V60.9129C7.36424 60.3314 6.72018 60.0407 5.43074 60.0407H1.50545C1.45376 60.0407 1.42725 60.0631 1.42725 60.1081V62.4921H1.42858Z" fill="url(#paint0_linear_34_900)"/>
<path d="M14.9021 65.9503C13.0044 65.9503 12.0555 65.3305 12.0555 64.0909V61.0779C12.0555 59.8568 12.9885 59.2476 14.853 59.2476H16.2419C16.5652 59.2476 16.7282 59.3797 16.7282 59.644C16.7282 59.9083 16.5665 60.0418 16.2419 60.0418H14.8716C13.6935 60.0418 13.1038 60.3933 13.1038 61.0977V62.1919H18.8936C19.2051 62.1919 19.3601 62.3175 19.3601 62.5699C19.3601 62.8223 19.2051 62.9478 18.8936 62.9478H13.1038V64.0619C13.1038 64.7914 13.7187 65.1561 14.9498 65.1561H18.8936C19.2236 65.1561 19.3893 65.2882 19.3893 65.5525C19.3893 65.8168 19.2236 65.9503 18.8936 65.9503H14.9021Z" fill="url(#paint1_linear_34_900)"/>
<path d="M23.5955 59.1975C23.6989 59.1975 23.7903 59.2147 23.8672 59.2504C23.9454 59.2861 24.0262 59.3389 24.1097 59.4103L29.9672 64.5642V59.5953C29.9672 59.331 30.1421 59.1988 30.4919 59.1988C30.8418 59.1988 31.0167 59.331 31.0167 59.5953V65.591C31.0167 65.862 30.8325 65.9981 30.4628 65.9981C30.3528 65.9981 30.26 65.9783 30.1858 65.9399C30.1116 65.9016 30.0321 65.8461 29.9473 65.7747L24.0991 60.6208V65.5897C24.0991 65.8606 23.9215 65.9967 23.565 65.9967C23.2218 65.9967 23.0508 65.8606 23.0508 65.5897V59.6125C23.0522 59.3376 23.2324 59.1975 23.5955 59.1975Z" fill="url(#paint2_linear_34_900)"/>
<path d="M37.5646 60.0408H34.9129C34.5895 60.0408 34.4265 59.9087 34.4265 59.643C34.4265 59.3787 34.5882 59.2466 34.9129 59.2466H41.2567C41.5867 59.2466 41.7523 59.3761 41.7523 59.6338C41.7523 59.9047 41.5867 60.0408 41.2567 60.0408H38.6142V65.5912C38.6142 65.8621 38.4432 65.9982 38.1 65.9982C37.7435 65.9982 37.5659 65.8621 37.5659 65.5912V60.0408H37.5646Z" fill="url(#paint3_linear_34_900)"/>
<path d="M49.6003 64.1572H44.6943L43.6938 65.7166C43.5705 65.9042 43.4022 65.9981 43.1889 65.9981C43.0272 65.9981 42.8973 65.9637 42.8006 65.8963C42.7038 65.8289 42.6548 65.7298 42.6548 65.6003C42.6548 65.5487 42.6614 65.5025 42.6747 65.4602C42.6879 65.4179 42.7171 65.3651 42.7621 65.3003L46.6092 59.4592C46.6675 59.3693 46.7431 59.3046 46.8372 59.2649C46.9313 59.2266 47.0333 59.2041 47.1433 59.1975C47.3699 59.1975 47.5422 59.2847 47.6588 59.4592L51.5152 65.2911C51.5669 65.3558 51.6013 65.4113 51.6172 65.4562C51.6331 65.5012 51.6411 65.5501 51.6411 65.6016C51.6411 65.7311 51.5921 65.8289 51.4953 65.8976C51.3986 65.965 51.2687 65.9994 51.107 65.9994C50.9003 65.9994 50.7346 65.9056 50.6114 65.7179L49.6003 64.1572ZM45.1807 63.4119H49.1245L47.1433 60.3512L45.1807 63.4119Z" fill="url(#paint4_linear_34_900)"/>
<path d="M57.6138 65.9505C55.7161 65.9505 54.7673 65.3175 54.7673 64.0515V59.6045C54.7673 59.3336 54.9382 59.1975 55.2828 59.1975C55.6393 59.1975 55.8168 59.3336 55.8168 59.6045V64.0224C55.8168 64.7783 56.4317 65.1563 57.6629 65.1563H61.6849C62.0083 65.1563 62.1713 65.2884 62.1713 65.5527C62.1713 65.817 62.0096 65.9505 61.6849 65.9505H57.6138Z" fill="url(#paint5_linear_34_900)"/>
<path d="M73.9538 65.9503C72.0561 65.9503 71.1072 65.3305 71.1072 64.0909V61.0779C71.1072 59.8568 72.0402 59.2476 73.9048 59.2476H77.6247C77.948 59.2476 78.111 59.3797 78.111 59.644C78.111 59.9083 77.9493 60.0418 77.6247 60.0418H73.9233C72.7452 60.0418 72.1555 60.3933 72.1555 61.0977V64.0619C72.1555 64.7914 72.7704 65.1561 74.0015 65.1561H77.6247C77.948 65.1561 78.111 65.2882 78.111 65.5525C78.111 65.8168 77.9493 65.9503 77.6247 65.9503H73.9538Z" fill="url(#paint6_linear_34_900)"/>
<path d="M88.2821 64.1572H83.3761L82.3756 65.7166C82.2523 65.9042 82.084 65.9981 81.8707 65.9981C81.709 65.9981 81.5791 65.9637 81.4824 65.8963C81.3856 65.8289 81.3366 65.7298 81.3366 65.6003C81.3366 65.5487 81.3432 65.5025 81.3565 65.4602C81.3697 65.4179 81.3989 65.3651 81.4439 65.3003L85.291 59.4592C85.3493 59.3693 85.4249 59.3046 85.519 59.2649C85.6131 59.2266 85.7151 59.2041 85.8251 59.1975C86.0517 59.1975 86.224 59.2847 86.3406 59.4592L90.197 65.2911C90.2487 65.3558 90.2831 65.4113 90.299 65.4562C90.3149 65.5012 90.3229 65.5501 90.3229 65.6016C90.3229 65.7311 90.2739 65.8289 90.1771 65.8976C90.0804 65.9663 89.9505 65.9994 89.7888 65.9994C89.5821 65.9994 89.4164 65.9056 89.2932 65.7179L88.2821 64.1572ZM83.8611 63.4119H87.805L85.8238 60.3512L83.8611 63.4119Z" fill="url(#paint7_linear_34_900)"/>
<path d="M94.8088 63.3247V65.5911C94.8088 65.862 94.6298 65.9981 94.2747 65.9981C93.9315 65.9981 93.7592 65.862 93.7592 65.5911V59.5848C93.7592 59.3588 93.9076 59.2451 94.2058 59.2451H98.7711C100.785 59.2451 101.793 59.7935 101.793 60.8917V61.6093C101.793 62.6877 100.785 63.2269 98.7711 63.2269H96.4494L100.956 65.2025C101.151 65.2871 101.248 65.4127 101.248 65.5805C101.248 65.71 101.202 65.8118 101.108 65.8858C101.013 65.9598 100.882 65.9968 100.714 65.9968C100.642 65.9968 100.583 65.9902 100.534 65.977C100.485 65.9638 100.422 65.9386 100.344 65.899L94.8088 63.3247ZM94.8088 62.4921H98.8016C100.096 62.4921 100.744 62.1987 100.744 61.6106V60.9129C100.744 60.3314 100.1 60.0407 98.8109 60.0407H94.8869C94.8353 60.0407 94.8088 60.0631 94.8088 60.1081V62.4921Z" fill="url(#paint8_linear_34_900)"/>
<path d="M112.625 64.4098C112.625 65.4366 111.64 65.9493 109.672 65.9493H105.729C105.399 65.9493 105.233 65.8172 105.233 65.5516C105.233 65.2873 105.399 65.1551 105.729 65.1551H109.672C110.935 65.1551 111.566 64.8868 111.566 64.3516V63.6644C111.566 63.1411 110.967 62.8795 109.769 62.8795H107.932C106.165 62.8795 105.281 62.4011 105.281 61.4456V60.7386C105.281 59.7448 106.187 59.2466 108.001 59.2466H109.089C109.413 59.2466 109.576 59.3787 109.576 59.643C109.576 59.9073 109.414 60.0408 109.089 60.0408H108.011C106.891 60.0408 106.33 60.2866 106.33 60.7769V61.3769C106.33 61.8553 106.862 62.0945 107.923 62.0945H109.691C111.647 62.0945 112.625 62.6046 112.625 63.6248V64.4098Z" fill="url(#paint9_linear_34_900)"/>
<path d="M6.0907 56.4554C2.03023 56.4554 0 55.1008 0 52.3917V42.8767C0 42.2966 0.367085 42.0059 1.10126 42.0059C1.86326 42.0059 2.24492 42.2966 2.24492 42.8767V52.3296C2.24492 53.9471 3.56086 54.7546 6.19407 54.7546H14.8C15.4931 54.7546 15.839 55.0374 15.839 55.6043C15.839 56.1713 15.4918 56.4541 14.8 56.4541H6.0907V56.4554Z" fill="url(#paint10_linear_34_900)"/>
<path d="M24.6544 56.4556C20.5939 56.4556 18.5637 55.1288 18.5637 52.4752V46.0275C18.5637 43.4148 20.5594 42.1091 24.551 42.1091H27.5235C28.2165 42.1091 28.5624 42.3919 28.5624 42.9589C28.5624 43.5258 28.2152 43.8086 27.5235 43.8086H24.5921C22.0702 43.8086 20.8086 44.5619 20.8086 46.0684V48.4115H33.198C33.8633 48.4115 34.1959 48.6811 34.1959 49.2203C34.1959 49.7594 33.8633 50.029 33.198 50.029H20.8086V52.4131C20.8086 53.9751 22.1245 54.7561 24.7577 54.7561H33.198C33.9044 54.7561 34.2582 55.0389 34.2582 55.6059C34.2582 56.1728 33.9044 56.4556 33.198 56.4556H24.6544Z" fill="url(#paint11_linear_34_900)"/>
<path d="M76.3021 55.3986C76.2676 55.3021 76.1947 55.1845 76.0834 55.0457L67.83 42.5666C67.5808 42.1939 67.2137 42.0076 66.7287 42.0076C66.4928 42.0208 66.2742 42.0697 66.074 42.1529C65.8726 42.2362 65.7096 42.3736 65.585 42.5679L57.3528 55.0682C57.256 55.2069 57.1938 55.3206 57.1659 55.4105C57.1381 55.5003 57.1249 55.6008 57.1249 55.7118C57.1249 55.988 57.2282 56.1994 57.4363 56.3435C57.6443 56.4888 57.9213 56.5615 58.2672 56.5615C58.7244 56.5615 59.0848 56.362 59.3486 55.9602L61.4901 52.622L62.5291 51.0256L66.7287 44.4748L70.9694 51.0256L71.9885 52.622L74.1499 55.9602C74.4136 56.3606 74.7662 56.5615 75.2101 56.5615C75.556 56.5615 75.8343 56.4888 76.041 56.3435C76.2491 56.1981 76.3524 55.988 76.3524 55.7118C76.3551 55.5981 76.3365 55.495 76.3021 55.3986Z" fill="url(#paint12_linear_34_900)"/>
<path d="M84.92 56.4556C80.8595 56.4556 78.8293 55.1288 78.8293 52.4752V46.0275C78.8293 43.4148 80.825 42.1091 84.8166 42.1091H92.7785C93.4716 42.1091 93.8175 42.3919 93.8175 42.9589C93.8175 43.5258 93.4703 43.8086 92.7785 43.8086H84.859C82.3371 43.8086 81.0755 44.5619 81.0755 46.0684V52.4117C81.0755 53.9738 82.3914 54.7548 85.0247 54.7548H92.7785C93.4716 54.7548 93.8175 55.0376 93.8175 55.6045C93.8175 56.1715 93.4703 56.4543 92.7785 56.4543H84.92V56.4556Z" fill="url(#paint13_linear_34_900)"/>
<path d="M105.832 50.1746V55.6893C105.832 56.2694 105.458 56.5602 104.709 56.5602C103.947 56.5602 103.566 56.2694 103.566 55.6893V50.1746L96.7674 43.6026C96.6428 43.4916 96.5487 43.3846 96.4865 43.2815C96.4242 43.1784 96.3924 43.0502 96.3924 42.8983C96.3924 42.6221 96.4971 42.404 96.7038 42.2454C96.9119 42.0869 97.1955 42.0076 97.5559 42.0076C97.7772 42.0076 97.9575 42.0419 98.0966 42.1106C98.2344 42.1794 98.3802 42.2904 98.5326 42.4423L104.707 48.5372L110.901 42.4212C111.039 42.2838 111.182 42.1794 111.328 42.1106C111.473 42.0419 111.663 42.0076 111.899 42.0076C112.217 42.0076 112.481 42.0869 112.689 42.2454C112.897 42.404 113 42.6221 113 42.8983C113 43.0502 112.966 43.1784 112.897 43.2815C112.828 43.3846 112.738 43.493 112.626 43.6026L105.832 50.1746Z" fill="url(#paint14_linear_34_900)"/>
<path d="M53.6329 47.5407C53.5163 47.5407 53.4116 47.55 53.3122 47.5645H48.8025C48.3559 47.5645 47.9928 47.9266 47.9928 48.372V48.9085C47.9928 49.3539 48.3559 49.716 48.8025 49.716H52.5118V52.3299C52.5118 53.9475 51.1945 54.7549 48.5626 54.7549H44.0728C41.4396 54.7549 40.1236 53.9462 40.1236 52.3299V46.0078C40.1236 44.5435 41.3852 43.8101 43.9071 43.8101H46.7139C47.4203 43.8101 47.7741 43.5273 47.7741 42.9603C47.7741 42.3934 47.4203 42.1106 46.7139 42.1106H43.866C39.8745 42.1106 37.8787 43.3964 37.8787 45.9668V52.3934C37.8787 55.1025 39.9089 56.4571 43.9694 56.4571H48.6673C52.7278 56.4571 54.758 55.1025 54.758 52.3934V48.413C54.7554 47.8315 54.3816 47.5407 53.6329 47.5407Z" fill="url(#paint15_linear_34_900)"/>
<path d="M69.8986 55.2635L66.7406 49.9919L63.5972 55.2635L62.8206 56.4555H70.6593L69.8986 55.2635Z" fill="url(#paint16_radial_34_900)"/>
<path d="M28.5015 35.0018C27.9435 34.5869 27.3578 34.2089 26.7601 33.8561C26.1638 33.4979 25.5515 33.1715 24.93 32.8636C23.6896 32.2451 22.4253 31.6808 21.1571 31.1456C19.8928 30.6064 18.6233 30.0792 17.42 29.4818C16.821 29.1845 16.2339 28.8634 15.7303 28.4907C15.6031 28.3995 15.4931 28.2978 15.3778 28.2013C15.2797 28.0982 15.1671 27.9991 15.0969 27.892C15.0054 27.785 14.9564 27.6872 14.9458 27.6396V27.6383C14.9604 27.6225 15.0293 27.5669 15.13 27.522C15.236 27.4718 15.3699 27.4255 15.513 27.3885C15.7966 27.3106 16.116 27.259 16.4367 27.222C17.0834 27.1467 17.7553 27.1242 18.4271 27.1203C19.7762 27.115 21.1372 27.1982 22.4969 27.2947C23.8552 27.3925 25.2229 27.522 26.5706 27.6832L27.7116 27.8207L27.2001 26.852C27.1272 26.7146 27.053 26.5784 26.9748 26.4437L26.7283 26.1106C26.6461 25.997 26.5574 25.9098 26.4712 25.808C26.3851 25.7102 26.2989 25.6111 26.2088 25.5225C26.0312 25.3402 25.851 25.1618 25.6655 24.9953C25.4826 24.8235 25.2944 24.6609 25.1076 24.4997C24.3562 23.8548 23.5809 23.2561 22.7924 22.676C22.3988 22.3853 22.0013 22.1011 21.5997 21.821L21.4473 21.7166L21.3612 21.6584C21.3267 21.6346 21.3042 21.6254 21.275 21.6082L20.9464 21.4232C20.7277 21.299 20.5077 21.1761 20.2877 21.0651C19.4105 20.6065 18.5 20.1995 17.5472 19.8902C16.5957 19.5849 15.5952 19.3748 14.5694 19.3854C14.0592 19.3933 13.5424 19.4475 13.0441 19.5942C12.5472 19.7422 12.0727 19.9748 11.6593 20.288C11.2458 20.5999 10.8999 20.991 10.6335 21.4219C10.3658 21.8527 10.183 22.3258 10.0584 22.8055C9.80395 23.7676 9.81588 24.7627 9.93912 25.7195C9.91925 24.7534 10.02 23.7821 10.3367 22.8901C10.6494 22.0033 11.1954 21.2012 11.9601 20.7122C12.7194 20.218 13.6458 20.0448 14.5575 20.0937C15.4759 20.1321 16.3837 20.3858 17.261 20.7096C18.1396 21.036 18.989 21.4575 19.8093 21.9306C20.0174 22.0456 20.2162 22.1685 20.4136 22.2914L20.7105 22.4751C20.733 22.4897 20.7648 22.5068 20.7794 22.5201L20.8417 22.5663L20.9861 22.6733C21.3718 22.9575 21.7561 23.2456 22.1338 23.5403C22.8918 24.127 23.6352 24.7323 24.3376 25.3666C24.6848 25.6785 25.0188 25.9996 25.3289 26.3274C23.0376 26.0683 20.745 25.8873 18.4126 25.9084C17.7102 25.919 17.0052 25.9468 16.2869 26.0353C15.9265 26.0816 15.5633 26.1384 15.1857 26.2481C14.9975 26.3022 14.8053 26.3696 14.6026 26.4714C14.4051 26.5758 14.1811 26.7066 13.9863 26.9762C13.8909 27.1084 13.8167 27.2868 13.7942 27.4665C13.7862 27.5551 13.7796 27.6489 13.7915 27.7268L13.8088 27.8497C13.8167 27.8881 13.8286 27.9224 13.8379 27.9581C13.9267 28.2396 14.0685 28.4352 14.1984 28.5885C14.3282 28.7629 14.4767 28.8898 14.6198 29.0299C14.7682 29.1514 14.918 29.2783 15.0704 29.3827C15.6839 29.8122 16.3187 30.1333 16.9575 30.432C18.2363 31.0174 19.5337 31.4839 20.8178 31.9742C22.1006 32.4645 23.3861 32.9337 24.6371 33.4768C25.8855 34.0226 27.1259 34.5948 28.2722 35.3256C28.85 35.6824 29.4092 36.0736 29.9208 36.5229C30.4349 36.9669 30.9173 37.4559 31.3215 38.0136C30.6364 36.8216 29.6173 35.8251 28.5015 35.0018ZM14.9418 27.6198C14.9418 27.6211 14.9431 27.6225 14.9418 27.6238C14.9418 27.6251 14.9418 27.6264 14.9418 27.6277L14.9405 27.6238C14.9418 27.6225 14.9418 27.6211 14.9418 27.6198Z" fill="url(#paint17_linear_34_900)"/>
<path d="M103.201 22.5241C103.054 22.0589 102.845 21.603 102.555 21.1946C102.264 20.7863 101.897 20.4255 101.471 20.1466C100.616 19.5823 99.565 19.3643 98.5657 19.4C98.3126 19.396 98.0661 19.4304 97.8157 19.4489C97.5705 19.4885 97.32 19.5123 97.0788 19.5691L96.7144 19.6445L96.3553 19.7383C96.1141 19.7964 95.8808 19.877 95.6463 19.9524C94.712 20.2682 93.8188 20.6766 92.9587 21.1325C92.7414 21.2409 92.5267 21.3704 92.3107 21.4893C92.1994 21.5541 92.1013 21.603 91.9807 21.6796L91.6759 21.8871C91.2784 22.1606 90.8888 22.4434 90.5005 22.7289C89.7239 23.3011 88.9619 23.8932 88.2211 24.5301C87.85 24.8473 87.4869 25.1803 87.1357 25.5385C87.0456 25.623 86.9621 25.7235 86.8773 25.8199C86.7938 25.9204 86.705 26.005 86.6255 26.1186L86.383 26.4477C86.3061 26.5798 86.2333 26.7146 86.1617 26.8494L85.6515 27.8154L86.7899 27.678C88.1376 27.5155 89.5039 27.3873 90.8636 27.2895C92.2233 27.1996 93.5842 27.1111 94.9333 27.1177C95.6065 27.1216 96.2771 27.1441 96.9238 27.2194C97.2445 27.2578 97.5639 27.308 97.8475 27.3873C97.9893 27.4256 98.1231 27.4705 98.2291 27.5221C98.3272 27.5657 98.3948 27.6199 98.4094 27.6357C98.3974 27.682 98.3497 27.7811 98.2583 27.8868C98.188 27.9938 98.0754 28.093 97.9773 28.196C97.862 28.2925 97.7521 28.3943 97.6248 28.4854C97.1213 28.8581 96.5355 29.1779 95.9352 29.4766C94.7306 30.0713 93.4636 30.6012 92.1981 31.1404C90.9298 31.6756 89.6669 32.2386 88.4265 32.8584C87.8063 33.1676 87.1927 33.4927 86.5964 33.8508C85.9974 34.2037 85.4129 34.5816 84.855 34.9966C83.7392 35.8199 82.7201 36.8163 82.031 38.011C82.4365 37.4546 82.9189 36.9657 83.4331 36.5216C83.9446 36.0736 84.5039 35.6825 85.0816 35.3257C86.228 34.5962 87.4684 34.0226 88.7167 33.4782C89.969 32.9363 91.2532 32.4659 92.536 31.9769C93.8201 31.4866 95.1189 31.0228 96.3964 30.4347C97.0338 30.136 97.6699 29.8149 98.2835 29.3854C98.4372 29.2797 98.5856 29.1541 98.7354 29.0326C98.8785 28.8912 99.0282 28.7656 99.1568 28.5912C99.2867 28.4366 99.4285 28.2423 99.5172 27.9595C99.5278 27.9238 99.5384 27.8894 99.5477 27.8511L99.5649 27.7282C99.5782 27.6489 99.5716 27.5551 99.5636 27.4666C99.553 27.378 99.5252 27.2868 99.496 27.2023C99.4589 27.1243 99.4205 27.0357 99.3715 26.9749C99.1767 26.704 98.9527 26.5732 98.7539 26.4688C98.5512 26.3671 98.359 26.2983 98.1708 26.2455C97.7931 26.1371 97.43 26.0803 97.0696 26.0327C96.35 25.9442 95.645 25.9151 94.9439 25.9058C92.6089 25.8847 90.3149 26.071 88.0223 26.3287C88.3245 26.0076 88.6478 25.6931 88.9871 25.3891C89.6788 24.764 90.409 24.1654 91.1551 23.5866C91.5275 23.2958 91.9065 23.013 92.2842 22.7289L92.5625 22.5214C92.6407 22.4659 92.752 22.4025 92.8461 22.343C93.0436 22.2241 93.2317 22.0985 93.4385 21.9849C94.2455 21.5131 95.0791 21.0902 95.9431 20.7585C96.8045 20.4308 97.6964 20.1599 98.6028 20.0964C99.0547 20.0568 99.508 20.07 99.9479 20.1493C100.388 20.2233 100.816 20.3634 101.206 20.5814C101.99 21.0122 102.582 21.7602 102.936 22.6179C103.294 23.4782 103.429 24.4337 103.443 25.3852C103.526 24.4416 103.504 23.4597 103.201 22.5241ZM98.4133 27.6278C98.4133 27.6265 98.4133 27.6251 98.4133 27.6251C98.412 27.6238 98.4133 27.6212 98.4133 27.6199C98.4133 27.6212 98.4133 27.6225 98.4147 27.6238L98.4133 27.6278Z" fill="url(#paint18_linear_34_900)"/>
<path d="M97.1372 13.2019C97.0179 12.82 96.9066 12.4381 96.7979 12.0548C96.6958 11.6703 96.5859 11.287 96.4904 10.9011C96.3937 10.5153 96.2903 10.1307 96.2015 9.7435L95.9272 8.5832L95.8318 8.17749L96.2638 8.22639C96.7568 8.28321 97.2365 8.35458 97.7189 8.43651C98.2 8.52241 98.6784 8.62549 99.1555 8.73914C99.6325 8.85015 100.104 8.98759 100.573 9.13956C101.041 9.29286 101.508 9.46069 101.958 9.66949C102.409 9.88093 102.857 10.1069 103.269 10.4082C103.674 10.7082 104.077 11.0611 104.325 11.5447C104.448 11.7826 104.527 12.0535 104.529 12.3258C104.535 12.598 104.466 12.861 104.361 13.0936C104.146 13.5627 103.79 13.9208 103.416 14.2274C103.717 13.8482 103.986 13.4398 104.114 13.0024C104.243 12.565 104.183 12.1196 103.938 11.7668C103.697 11.4113 103.342 11.1218 102.95 10.8853C102.557 10.6487 102.136 10.4452 101.7 10.2708C101.263 10.1003 100.817 9.94041 100.363 9.80033C99.9095 9.66024 99.4483 9.53998 98.9871 9.4184C98.5246 9.29947 98.0582 9.19639 97.5904 9.09727C97.1239 8.99552 96.6508 8.90037 96.1856 8.82504L96.5209 8.46955L96.7038 9.64702C96.7674 10.0395 96.8151 10.4347 96.8708 10.8285C96.9278 11.2223 96.9702 11.6187 97.0192 12.0126C97.0629 12.4077 97.104 12.8041 97.1372 13.2019Z" fill="url(#paint19_linear_34_900)"/>
<path d="M16.9058 13.2023C16.9389 12.8045 16.98 12.408 17.0237 12.0116C17.0741 11.6164 17.1165 11.22 17.1722 10.8275C17.2278 10.4337 17.2769 10.0385 17.3391 9.64605L17.522 8.46857L17.8573 8.82406C17.3922 8.90071 16.919 8.99454 16.4526 9.0963C15.9848 9.19541 15.5183 9.29849 15.0558 9.41743C14.5946 9.53901 14.1334 9.65927 13.6802 9.79935C13.227 9.93811 12.7817 10.0993 12.3431 10.2698C11.9071 10.4443 11.4857 10.6478 11.0934 10.8843C10.7024 11.1209 10.346 11.4103 10.1048 11.7658C9.85961 12.1186 9.79865 12.5653 9.92852 13.0014C10.0557 13.4388 10.3261 13.8472 10.6269 14.2265C10.2532 13.9199 9.89805 13.563 9.68204 13.0926C9.57602 12.86 9.50843 12.597 9.51373 12.3248C9.51771 12.0539 9.59457 11.783 9.71781 11.5438C9.9643 11.0601 10.3672 10.7072 10.774 10.4072C11.1862 10.1059 11.6341 9.87996 12.0847 9.66852C12.5366 9.45972 13.0017 9.29188 13.4695 9.13859C13.9373 8.98661 14.4091 8.84917 14.8875 8.73816C15.3646 8.62451 15.843 8.52276 16.324 8.43554C16.8077 8.3536 17.2861 8.28223 17.7791 8.22541L18.2111 8.17651L18.1157 8.58222L17.8414 9.74252C17.7526 10.1297 17.6479 10.5143 17.5525 10.9002C17.4571 11.2861 17.3471 11.6693 17.2451 12.0539C17.1364 12.4384 17.0251 12.8204 16.9058 13.2023Z" fill="url(#paint20_linear_34_900)"/>
<path d="M60.2683 26.0642H53.5335V26.9747H60.2683V26.0642Z" fill="white"/>
<path d="M105.012 17.7547C104.247 15.89 97.4075 14.0253 93.9619 13.1954C92.7255 12.8981 91.6229 12.2109 90.8026 11.2422C87.2192 7.00672 82.569 3.6408 81.2756 2.74216C81.041 2.57961 80.784 2.4554 80.511 2.37611C73.4939 0.327743 56.502 0 56.502 0C56.502 0 39.51 0.327743 32.4917 2.37611C32.2187 2.4554 31.9629 2.57961 31.7284 2.74216C30.4336 3.64212 25.7834 7.00804 22.1987 11.2422C21.3797 12.2109 20.2758 12.8981 19.0421 13.1954C15.5978 14.0253 8.75571 15.89 7.99106 17.7547C7.10847 19.9101 5.29557 26.0195 5.607 31.4536C5.84686 28.2555 7.61867 15.3482 20.6177 15.15L28.1277 24.1812C26.8105 22.0457 24.4635 17.0622 23.7373 15.5002L28.5121 16.5851C29.9698 16.9168 31.4633 17.0767 32.9582 17.0648L56.5033 16.856L80.0471 17.0648C81.5433 17.0767 83.0355 16.9155 84.4946 16.5851L89.7146 15.3984C89.0387 16.856 86.542 22.1672 85.2115 24.287L92.8103 15.1486C105.699 15.3455 107.231 27.9106 107.41 31.2078C107.654 25.8371 105.884 19.877 105.012 17.7547ZM84.4932 15.3217C83.0342 15.6535 81.542 15.8134 80.0458 15.8001L56.502 15.5927L32.9568 15.8001C31.462 15.8147 29.9685 15.6535 28.5107 15.3217L21.6885 13.7703C23.3755 10.8008 29.9844 5.335 31.678 3.96061C31.951 3.73992 32.2677 3.58133 32.6083 3.49543C38.9508 1.89507 56.502 1.25016 56.502 1.25016C56.502 1.25016 74.0532 1.89507 80.3957 3.49543C80.7362 3.58265 81.053 3.73992 81.326 3.96061C83.0196 5.335 89.6284 10.8008 91.3154 13.7703L84.4932 15.3217Z" fill="url(#paint21_linear_34_900)"/>
<path d="M91.3155 13.7701L84.4932 15.3216C83.0342 15.6533 81.542 15.8132 80.0458 15.8L56.502 15.5925L32.9568 15.8C31.462 15.8145 29.9685 15.6533 28.5107 15.3216L21.6885 13.7701C23.3755 10.8007 29.9844 5.33483 31.678 3.96045C31.951 3.73975 32.2677 3.58117 32.6083 3.49527C38.9508 1.8949 56.502 1.25 56.502 1.25C56.502 1.25 74.0532 1.8949 80.3957 3.49527C80.7363 3.58249 81.053 3.73975 81.326 3.96045C83.0196 5.33483 89.6285 10.8007 91.3155 13.7701Z" fill="url(#paint22_linear_34_900)"/>
<path d="M89.7133 15.3997C89.0374 16.8573 86.5407 22.1685 85.2102 24.2882L85.2088 24.2895C84.9107 24.7653 84.6708 25.0798 84.5237 25.1538C83.6106 25.6084 84.2944 28.1127 72.8817 28.3413C62.9001 28.5409 57.8497 28.4775 56.7405 28.4576C56.8492 28.4563 56.9022 28.4537 56.9022 28.4537H56.502C56.502 28.4537 56.5749 28.455 56.7206 28.4576C55.7334 28.4748 50.6816 28.5449 40.5225 28.3413C29.1071 28.1127 29.7922 25.6098 28.8805 25.1538C28.7228 25.0745 28.4564 24.7177 28.1277 24.1812C26.8105 22.0456 24.4635 17.0621 23.7373 15.5001L28.5121 16.5851C29.9698 16.9168 31.4633 17.0767 32.9582 17.0648L56.5033 16.856L80.0471 17.0648C81.5433 17.0767 83.0355 16.9154 84.4946 16.5851L89.7133 15.3997Z" fill="url(#paint23_linear_34_900)"/>
<path d="M97.0139 9.41064L97.2909 11.5779L103.81 12.7766C103.808 12.7752 104.549 10.6542 97.0139 9.41064Z" fill="url(#paint24_linear_34_900)"/>
<path d="M17.1006 9.19507L16.8236 11.3624L10.3049 12.561C10.3049 12.5597 9.56541 10.4399 17.1006 9.19507Z" fill="url(#paint25_linear_34_900)"/>
<defs>
<linearGradient id="paint0_linear_34_900" x1="4.39603" y1="57.5156" x2="4.39603" y2="68.0263" gradientUnits="userSpaceOnUse">
<stop stop-color="white"/>
<stop offset="0.1517" stop-color="#939393"/>
<stop offset="0.4438" stop-color="white"/>
<stop offset="0.736" stop-color="#D6D6D6"/>
<stop offset="1" stop-color="white"/>
</linearGradient>
<linearGradient id="paint1_linear_34_900" x1="15.7225" y1="57.5154" x2="15.7225" y2="68.0261" gradientUnits="userSpaceOnUse">
<stop stop-color="white"/>
<stop offset="0.1517" stop-color="#939393"/>
<stop offset="0.4438" stop-color="white"/>
<stop offset="0.736" stop-color="#D6D6D6"/>
<stop offset="1" stop-color="white"/>
</linearGradient>
<linearGradient id="paint2_linear_34_900" x1="27.0345" y1="57.5156" x2="27.0345" y2="68.0263" gradientUnits="userSpaceOnUse">
<stop stop-color="white"/>
<stop offset="0.1517" stop-color="#939393"/>
<stop offset="0.4438" stop-color="white"/>
<stop offset="0.736" stop-color="#D6D6D6"/>
<stop offset="1" stop-color="white"/>
</linearGradient>
<linearGradient id="paint3_linear_34_900" x1="38.089" y1="57.5158" x2="38.089" y2="68.0264" gradientUnits="userSpaceOnUse">
<stop stop-color="white"/>
<stop offset="0.1517" stop-color="#939393"/>
<stop offset="0.4438" stop-color="white"/>
<stop offset="0.736" stop-color="#D6D6D6"/>
<stop offset="1" stop-color="white"/>
</linearGradient>
<linearGradient id="paint4_linear_34_900" x1="47.1473" y1="57.5156" x2="47.1473" y2="68.0263" gradientUnits="userSpaceOnUse">
<stop stop-color="white"/>
<stop offset="0.1517" stop-color="#939393"/>
<stop offset="0.4438" stop-color="white"/>
<stop offset="0.736" stop-color="#D6D6D6"/>
<stop offset="1" stop-color="white"/>
</linearGradient>
<linearGradient id="paint5_linear_34_900" x1="58.4692" y1="57.5156" x2="58.4692" y2="68.0262" gradientUnits="userSpaceOnUse">
<stop stop-color="white"/>
<stop offset="0.1517" stop-color="#939393"/>
<stop offset="0.4438" stop-color="white"/>
<stop offset="0.736" stop-color="#D6D6D6"/>
<stop offset="1" stop-color="white"/>
</linearGradient>
<linearGradient id="paint6_linear_34_900" x1="74.6089" y1="57.5154" x2="74.6089" y2="68.0261" gradientUnits="userSpaceOnUse">
<stop stop-color="white"/>
<stop offset="0.1517" stop-color="#939393"/>
<stop offset="0.4438" stop-color="white"/>
<stop offset="0.736" stop-color="#D6D6D6"/>
<stop offset="1" stop-color="white"/>
</linearGradient>
<linearGradient id="paint7_linear_34_900" x1="85.8287" y1="57.5156" x2="85.8287" y2="68.0263" gradientUnits="userSpaceOnUse">
<stop stop-color="white"/>
<stop offset="0.1517" stop-color="#939393"/>
<stop offset="0.4438" stop-color="white"/>
<stop offset="0.736" stop-color="#D6D6D6"/>
<stop offset="1" stop-color="white"/>
</linearGradient>
<linearGradient id="paint8_linear_34_900" x1="97.7767" y1="57.5156" x2="97.7767" y2="68.0263" gradientUnits="userSpaceOnUse">
<stop stop-color="white"/>
<stop offset="0.1517" stop-color="#939393"/>
<stop offset="0.4438" stop-color="white"/>
<stop offset="0.736" stop-color="#D6D6D6"/>
<stop offset="1" stop-color="white"/>
</linearGradient>
<linearGradient id="paint9_linear_34_900" x1="108.928" y1="57.5158" x2="108.928" y2="68.0264" gradientUnits="userSpaceOnUse">
<stop stop-color="white"/>
<stop offset="0.1517" stop-color="#939393"/>
<stop offset="0.4438" stop-color="white"/>
<stop offset="0.736" stop-color="#D6D6D6"/>
<stop offset="1" stop-color="white"/>
</linearGradient>
<linearGradient id="paint10_linear_34_900" x1="7.92067" y1="38.9826" x2="7.92067" y2="55.5783" gradientUnits="userSpaceOnUse">
<stop stop-color="white"/>
<stop offset="0.1517" stop-color="#939393"/>
<stop offset="0.4438" stop-color="white"/>
<stop offset="0.736" stop-color="#D6D6D6"/>
<stop offset="1" stop-color="white"/>
</linearGradient>
<linearGradient id="paint11_linear_34_900" x1="26.4115" y1="38.9828" x2="26.4115" y2="55.5785" gradientUnits="userSpaceOnUse">
<stop stop-color="white"/>
<stop offset="0.1517" stop-color="#939393"/>
<stop offset="0.4438" stop-color="white"/>
<stop offset="0.736" stop-color="#D6D6D6"/>
<stop offset="1" stop-color="white"/>
</linearGradient>
<linearGradient id="paint12_linear_34_900" x1="66.7403" y1="38.983" x2="66.7403" y2="55.5788" gradientUnits="userSpaceOnUse">
<stop stop-color="white"/>
<stop offset="0.1517" stop-color="#939393"/>
<stop offset="0.4438" stop-color="white"/>
<stop offset="0.736" stop-color="#D6D6D6"/>
<stop offset="1" stop-color="white"/>
</linearGradient>
<linearGradient id="paint13_linear_34_900" x1="86.3225" y1="38.9828" x2="86.3225" y2="55.5785" gradientUnits="userSpaceOnUse">
<stop stop-color="white"/>
<stop offset="0.1517" stop-color="#939393"/>
<stop offset="0.4438" stop-color="white"/>
<stop offset="0.736" stop-color="#D6D6D6"/>
<stop offset="1" stop-color="white"/>
</linearGradient>
<linearGradient id="paint14_linear_34_900" x1="104.699" y1="38.983" x2="104.699" y2="55.5788" gradientUnits="userSpaceOnUse">
<stop stop-color="white"/>
<stop offset="0.1517" stop-color="#939393"/>
<stop offset="0.4438" stop-color="white"/>
<stop offset="0.736" stop-color="#D6D6D6"/>
<stop offset="1" stop-color="white"/>
</linearGradient>
<linearGradient id="paint15_linear_34_900" x1="46.3158" y1="38.9829" x2="46.3158" y2="55.5786" gradientUnits="userSpaceOnUse">
<stop stop-color="white"/>
<stop offset="0.1517" stop-color="#939393"/>
<stop offset="0.4438" stop-color="white"/>
<stop offset="0.736" stop-color="#D6D6D6"/>
<stop offset="1" stop-color="white"/>
</linearGradient>
<radialGradient id="paint16_radial_34_900" cx="0" cy="0" r="1" gradientUnits="userSpaceOnUse" gradientTransform="translate(66.7401 53.2235) scale(4.8111 4.7977)">
<stop stop-color="#FF0000"/>
<stop offset="1" stop-color="#310000"/>
</radialGradient>
<linearGradient id="paint17_linear_34_900" x1="20.432" y1="36.1805" x2="20.8457" y2="23.1804" gradientUnits="userSpaceOnUse">
<stop stop-color="#310000"/>
<stop offset="1" stop-color="#FF0000"/>
</linearGradient>
<linearGradient id="paint18_linear_34_900" x1="92.5278" y1="38.4751" x2="92.9415" y2="25.475" gradientUnits="userSpaceOnUse">
<stop stop-color="#310000"/>
<stop offset="1" stop-color="#FF0000"/>
</linearGradient>
<linearGradient id="paint19_linear_34_900" x1="95.8313" y1="11.2019" x2="104.528" y2="11.2019" gradientUnits="userSpaceOnUse">
<stop stop-color="white"/>
<stop offset="0.1517" stop-color="#939393"/>
<stop offset="0.4438" stop-color="white"/>
<stop offset="0.736" stop-color="#D6D6D6"/>
<stop offset="1" stop-color="white"/>
</linearGradient>
<linearGradient id="paint20_linear_34_900" x1="9.51445" y1="11.2022" x2="18.2114" y2="11.2022" gradientUnits="userSpaceOnUse">
<stop stop-color="white"/>
<stop offset="0.1517" stop-color="#939393"/>
<stop offset="0.4438" stop-color="white"/>
<stop offset="0.736" stop-color="#D6D6D6"/>
<stop offset="1" stop-color="white"/>
</linearGradient>
<linearGradient id="paint21_linear_34_900" x1="5.57054" y1="15.7258" x2="107.433" y2="15.7258" gradientUnits="userSpaceOnUse">
<stop stop-color="white"/>
<stop offset="0.1517" stop-color="#939393"/>
<stop offset="0.4438" stop-color="white"/>
<stop offset="0.736" stop-color="#D6D6D6"/>
<stop offset="1" stop-color="white"/>
</linearGradient>
<linearGradient id="paint22_linear_34_900" x1="56.7388" y1="-3.2257" x2="56.5685" y2="9.06734" gradientUnits="userSpaceOnUse">
<stop stop-color="white"/>
<stop offset="1"/>
</linearGradient>
<linearGradient id="paint23_linear_34_900" x1="56.7249" y1="36.6617" x2="56.7249" y2="22.4905" gradientUnits="userSpaceOnUse">
<stop stop-color="white"/>
<stop offset="1"/>
</linearGradient>
<linearGradient id="paint24_linear_34_900" x1="99.6873" y1="13.4184" x2="100.515" y2="10.7433" gradientUnits="userSpaceOnUse">
<stop stop-color="white"/>
<stop offset="1"/>
</linearGradient>
<linearGradient id="paint25_linear_34_900" x1="14.4264" y1="13.2031" x2="13.5986" y2="10.528" gradientUnits="userSpaceOnUse">
<stop stop-color="white"/>
<stop offset="1"/>
</linearGradient>
</defs>
</svg>
